<?xml version="1.0" encoding="UTF-8"?>
<svg id="Layer_1" data-name="Layer 1" xmlns="http://www.w3.org/2000/svg" version="1.1" viewBox="0 0 139.73 93.05">
  <defs>
    <style>
      .cls-1 {
        fill: #b0987c;
        stroke-width: 0px;
      }
    </style>
  </defs>
  <path class="cls-1" d="M61.38,86.16c-19.6,3.98-39.63,4.67-59.55,5.33-.32.01-.32.51,0,.5,19.97-.66,40.05-1.36,59.69-5.35.32-.06.18-.55-.13-.48h0Z"/>
  <path class="cls-1" d="M13.83,91.39c.36-2.69-.42-5.26-1.29-7.78-.48-1.38-.98-2.76-1.33-4.17-.32-1.3-.67-2.83-.13-4.12.69-1.65,3.01-1.15,4.46-1.14,1.66,0,3.33.02,4.99.02,3.39.02,6.79.03,10.18.05.32,0,.32-.5,0-.5-3.73-.02-7.45-.04-11.18-.06-1.86,0-3.73-.02-5.59-.03-1.12,0-2.29-.12-3.02.89-1.47,2.02-.16,5.37.53,7.43,1.03,3.05,2.32,6.12,1.88,9.41-.04.32.46.31.5,0h0Z"/>
  <path class="cls-1" d="M13.52,73.9c-1.22,2.45-.31,5.15.32,7.63.79,3.14,1.45,6.3,1.99,9.49.05.32.54.18.48-.13-.49-2.87-1.07-5.72-1.76-8.55-.63-2.58-1.88-5.62-.6-8.19.14-.29-.29-.54-.43-.25h0Z"/>
  <path class="cls-1" d="M32.99,78.76c-1.37,3.72,1.1,9.6-3.89,11.25-2.06.68-4.54.58-6.69.45-2.26-.14-4.47-.61-6.45-1.73-.28-.16-.53.27-.25.43,2.01,1.14,4.27,1.63,6.56,1.79s5.03.28,7.23-.55c1.9-.71,3-2.25,3.33-4.22.41-2.43-.22-4.93.65-7.29.11-.3-.37-.43-.48-.13h0Z"/>
  <path class="cls-1" d="M35.49,37.28c-1.82.19-3.64.37-5.46.57-1.11.12-2.27.26-3.24.83-2.32,1.34-1.84,4.79-1.71,7.04.09,1.52.38,3.02.48,4.53.05.87,0,1.71-.24,2.55s-.6,1.55-.68,2.39c-.11,1.13.3,2.14.82,3.12.83,1.56,1.6,2.95,1.81,4.74.34,2.92.04,5.71,1.39,8.43,1.25,2.52,3.17,4.62,4.33,7.19,1.02,2.28,1.71,4.85,3.92,6.31s4.81,1.49,7.26,1.56c3.99.11,7.99.19,11.98.29,3.75.09,7.77.59,11.4-.52.31-.09.18-.58-.13-.48-3.07.94-6.36.62-9.52.55s-6.32-.15-9.48-.23c-2.84-.07-5.86.12-8.64-.53-3.05-.71-4.52-2.76-5.65-5.52-.92-2.24-2.08-4.19-3.42-6.2-1.64-2.46-2.63-4.77-2.76-7.76-.12-2.64-.25-4.91-1.58-7.25-.69-1.22-1.4-2.42-1.18-3.87s.9-2.62.9-4.1c0-1.58-.35-3.15-.47-4.73s-.35-3.61.08-5.23c.54-2.03,2.53-2.39,4.34-2.61s3.64-.38,5.46-.57c.32-.03.32-.53,0-.5h0Z"/>
  <path class="cls-1" d="M67.65,86.36c.85-.56,1.78-.87,2.81-.83.83.03,1.48.38,2.24.63,1.29.42,2.59.09,3.7-.65,1.33-.89,2.42-2.16,3.46-3.36,1.2-1.39,2.29-3.2,4.16-3.73,1.58-.46,3.89-.57,5.12.69.43.44,1.35,1.4,1.97.55.56-.77-.52-1.46-1.04-1.8-1.58-1.06-3.19-2.08-4.78-3.11-.27-.18-.52.26-.25.43,1.41.92,2.82,1.84,4.23,2.76.14.09.88.43.92.6.32,1.53-.74.16-.81.09-.31-.3-.66-.52-1.05-.67-2.03-.79-4.87-.29-6.47,1.16-1.09.99-1.93,2.25-2.92,3.34-1.1,1.21-2.35,2.73-3.96,3.23s-2.68-.45-4.17-.62c-1.22-.14-2.4.2-3.41.87-.27.18-.02.61.25.43h0Z"/>
  <path class="cls-1" d="M88.76,79.85c1.07,1.87,2.37,3.6,3.88,5.14.15.16.42.04.43-.18.02-1.96-.78-3.87-2.19-5.23-.23-.22-.59.13-.35.35,1.31,1.27,2.06,3.05,2.04,4.88l.43-.18c-1.48-1.51-2.76-3.2-3.8-5.03-.16-.28-.59-.03-.43.25h0Z"/>
  <path class="cls-1" d="M91.91,81.18c.95.02,1.97.16,2.92.06.51-.05.89-.17,1.06-.7.38-1.13-1.11-2.2-1.78-2.87-1.27-1.28-2.59-2.53-4.09-3.54-.7-.47-1.46-.93-2.29-1.11-.74-.15-1.37.03-2.1.14-1.69.27-3.13-1.14-4.83-.78-.65.14-1.02.49-1.44.98-.68.8-1.34,1.51-2.14,2.19-1.73,1.49-3.46,2.85-5.72,3.43-1.83.47-3.89.31-5.64,1.04-1.13.47-2.17,1.58-1.98,2.9.24,1.65,2.64,2.46,3.88,3.17.28.16.53-.27.25-.43-1.55-.89-5.15-2.36-2.95-4.54,1.36-1.35,3.91-1.1,5.69-1.45,3.25-.63,6.13-2.73,8.32-5.15.78-.86,1.28-1.78,2.63-1.65.87.08,1.6.52,2.43.74.57.15,1.07.13,1.64.04,1.27-.2,2.16-.18,3.29.46,1.59.9,2.96,2.18,4.25,3.45.49.49,1.78,1.4,1.96,2.06.44,1.56-2.66,1.06-3.36,1.05-.32,0-.32.49,0,.5h0Z"/>
  <path class="cls-1" d="M84.84,73.89c.93.29,1.86.59,2.79.88.47.15.96.29,1.37.57s.76.69,1.1,1.05c.67.72,1.33,1.45,1.98,2.2s1.27,1.41,1.67,2.27c.13.29.57.04.43-.25-.39-.85-1.03-1.54-1.63-2.24-.72-.83-1.46-1.65-2.21-2.46-.3-.32-.6-.65-.96-.92-.39-.29-.84-.46-1.3-.61-1.03-.34-2.07-.66-3.11-.98-.31-.1-.44.39-.13.48h0Z"/>
  <path class="cls-1" d="M75.64,86.07c2.17-.17,4.01-1.33,5.67-2.67,2.05-1.65,4-3.43,5.99-5.15.24-.21-.11-.56-.35-.35-1.85,1.6-3.67,3.22-5.55,4.78-1.66,1.38-3.53,2.71-5.76,2.88-.32.03-.32.53,0,.5h0Z"/>
  <path class="cls-1" d="M82.29,82.63c1.43.24,2.8.72,4.21,1.05.65.15,1.3.27,1.97.31.32.02.64.02.96,0,.24-.02.61,0,.79-.19.39-.41-.23-.8-.52-.97-.62-.36-1.24-.72-1.85-1.08-.5-.3-1.09-.69-1.08-1.35.01-.79.76-1.31,1.34-1.72.26-.18.01-.62-.25-.43-.87.61-1.97,1.57-1.46,2.77.2.46.61.78,1.02,1.04.56.36,1.15.68,1.73,1.02.15.09.3.17.44.26.08.04.16.09.23.16-.08-.02-.16-.02-.24,0-.32,0-.64.03-.96.02-.71-.03-1.41-.17-2.1-.34-1.36-.33-2.69-.79-4.07-1.01-.31-.05-.45.43-.13.48h0Z"/>
  <path class="cls-1" d="M89.22,79.49l-.26-.33c-.14-.18-.42-.02-.43.18,0,.41-.01.83-.02,1.24,0,.36-.01.73.18,1.05.32.53.96.74,1.52.89.31.08.44-.4.13-.48-.44-.12-1-.27-1.24-.7-.15-.27-.1-.61-.09-.91,0-.37.01-.74.02-1.1l-.43.18.26.33c.08.11.27.09.35,0,.11-.11.08-.25,0-.35h0Z"/>
  <path class="cls-1" d="M88.22,73.28c1.65-.46,3.23.16,4.79.64,1.13.35,3.12.35,3.8,1.46l.15-.37c-1.2.26-2.37.59-3.53.98-.26.09-.23.5.07.49,3.62-.13,7.19-1.12,10.83-.71.32.04.32-.46,0-.5-3.63-.42-7.21.58-10.83.71l.07.49c1.16-.39,2.34-.72,3.53-.98.16-.03.23-.24.15-.37-.77-1.26-2.55-1.23-3.82-1.61-1.75-.52-3.5-1.25-5.34-.73-.31.09-.18.57.13.48h0Z"/>
  <path class="cls-1" d="M92.78,83.5c.74-.37,1.56-.14,2.3.09.71.22,1.41.43,2.13.6,1.18.28,2.83.8,3.92,0,.41-.3.68-.74.85-1.22.15-.44.32-1.13,0-1.52-.35-.43-1.12-.41-1.61-.41-.76,0-1.58.18-2.33.03-.23-.04-.25-.02-.26-.28,0-.24.05-.26.24-.39.17-.11.35-.2.54-.27.36-.12.74-.17,1.11-.16.92.02,1.81.39,2.65.74.3.12.43-.36.13-.48-1.31-.54-2.77-1.07-4.17-.52-.43.17-1.1.53-1.16,1.05-.05.47.42.73.82.8.76.14,1.57-.02,2.33-.03.33,0,.99-.06,1.26.17s.06.85-.04,1.13c-.64,1.84-2.81,1.18-4.24.84-.88-.21-1.73-.52-2.6-.74-.73-.18-1.45-.22-2.13.12-.29.14-.04.57.25.43h0Z"/>
  <path class="cls-1" d="M88.76,83.81l-17.19,3.83c-.25.06-.22.41,0,.48,5.21,1.64,10.63,2.27,16.06,2.65s10.9.96,16.23.04c2.72-.47,5.34-1.36,8-2.08s5.58-1.32,8.42-1.71c2.19-.3,5.02-.06,6.89-1.45,1.54-1.15,2.27-3.07,2.7-4.88.62-2.63.71-5.36,1.27-8s1.36-5.03,2.27-7.47,1.9-4.88,2.82-7.34c.45-1.21,1.02-2.47,1.29-3.74.12-.56.15-1.19-.33-1.6-.54-.45-1.31-.22-1.91-.07-1.48.37-2.96.72-4.45,1.02-2.88.58-5.79,1.01-8.72,1.29-2.73.26-5.44.3-8.18.4-1.83.06-3.6.48-4.48,2.25-.49,1-.62,2.14-.82,3.23-.27,1.46-.61,2.9-1.01,4.32-.79,2.86-1.78,5.66-2.81,8.45-2.05,5.57-4.22,11.12-5.25,16.99-.06.31.43.45.48.13,1.65-9.41,6.26-17.92,8.5-27.16.27-1.12.49-2.25.7-3.39.2-1.07.39-2.29,1.15-3.13,1.64-1.8,5.2-1.19,7.39-1.29,4.98-.22,9.94-.88,14.81-1.95.55-.12,1.09-.25,1.64-.38.46-.11,1.25-.48,1.71-.42,2.05.25.36,3.39.03,4.29-.82,2.25-1.73,4.47-2.58,6.71-1.68,4.41-2.87,8.78-3.47,13.47-.3,2.35-.62,5.01-2.12,6.94-1.73,2.22-4.79,1.93-7.32,2.26-4.9.64-9.51,2.11-14.29,3.3-5.72,1.44-11.58.93-17.4.55s-11.55-.96-17.09-2.71v.48l17.19-3.83c.31-.07.18-.55-.13-.48h0Z"/>
  <path class="cls-1" d="M31.03,43.99c2.68,2.23,4.78,5.09,6.06,8.34.63,1.62,1.05,3.32,1.26,5.04.18,1.56.2,3.16.64,4.67.42,1.42,1.26,2.39,2.18,3.51,1.27,1.53,1.8,3.49,1.25,5.44s-2.02,2.86-3.59,3.91c-1.37.91-2.35,2.09-3.3,3.41l.47.13c-.1-3.76,3.54-5.73,6.84-6.04,1.8-.17,3.38,0,4.91,1.04,1.07.73,2.1,1.43,3.31,1.91,5.2,2.05,11.03.8,16.32,2.53v-.48c-3.99,1.28-5.69,5.8-3.52,9.39.17.28.6.02.43-.25-2-3.31-.47-7.48,3.22-8.66.24-.08.24-.4,0-.48-6.24-2.04-13.37-.09-19-4.03-1.27-.89-2.39-1.48-3.97-1.52s-3.19.15-4.64.7c-2.49.95-4.47,3.13-4.4,5.9,0,.26.32.32.47.13.66-.91,1.32-1.82,2.18-2.55s1.8-1.17,2.65-1.83c1.12-.87,1.89-2.02,2.2-3.41.29-1.3.16-2.69-.37-3.91-.75-1.72-2.4-2.78-3.03-4.58s-.56-3.69-.82-5.53c-.24-1.69-.69-3.34-1.34-4.92-1.31-3.19-3.39-5.99-6.04-8.2-.25-.2-.6.15-.35.35h0Z"/>
  <path class="cls-1" d="M67.36,77.91c1.2.06,2.34.58,3.18,1.42.23.23.58-.13.35-.35-.94-.94-2.21-1.5-3.54-1.57-.32-.02-.32.48,0,.5h0Z"/>
  <path class="cls-1" d="M44.63,48.62c1.72,1.95,2.78,4.3,3.77,6.67s1.99,4.85,1.94,7.53c-.05,2.5-.84,4.95-2.02,7.14-.55,1.03-1.19,2.02-1.91,2.94-.41.53-.28.61-1,.33s-.59-.25-.69-.9c-.12-.75-.16-1.53-.2-2.29-.07-1.29-.08-2.58-.03-3.86.03-.64.07-1.29.12-1.93.03-.32.06-.64.1-.96s.02-1.64.25-1.85l.48-.02c.35-.15.57-.06.65.28.15.2.26.63.33.91.15.58.2,1.18.26,1.78.13,1.38.2,2.76.21,4.14,0,.86-.18,1.69-1.15,1.79-.66.07-1.58-.33-2.15-.61-1.11-.54-2.39-1.38-3.02-2.46-1.14-1.94-.04-4.48-.72-6.59-1.31-4.02-5.68-6.87-3.4-11.49,1-2.04,2.65-3.98,4.61-5.15.45-.27,3-1.56,2.81-.46-.08.46-.8,1.12-1.1,1.46-.42.47-.87.91-1.36,1.31-1.44,1.19-6.25,4.17-7.23,1.09s1.38-5.27,3.55-6.77c1.67-1.15,2.98-2.48,4.04-4.22.59-.96,1.09-1.97,1.59-2.98.24-.48.47-.95.71-1.43.33-.65,1.02-2.14,1.8-.72.62,1.14.67,3.26.26,4.46-.46,1.36-1.73,2.32-2.9,3.04-2.45,1.52-6.43,1.98-7.4-1.53-.68-2.45.53-6.07,2.89-7.17,1.1-.52,2.31-.74,3.41-1.29s2.16-1.33,3.07-2.23c.23-.23-.12-.58-.35-.35-1.39,1.37-2.97,2.26-4.81,2.87-1.34.44-2.57.91-3.4,2.12-1.33,1.91-2.06,4.99-.91,7.15,1.24,2.33,4.15,2.53,6.36,1.6,2.58-1.08,4.93-3.12,4.77-6.11-.05-.98-.16-2.71-.8-3.49-.61-.74-1.41-.19-1.86.42-.91,1.23-1.43,2.85-2.16,4.19-.86,1.59-1.85,3.13-3.26,4.3-1.27,1.06-2.82,1.77-3.87,3.08-.85,1.05-1.35,2.39-1.38,3.75-.02.96.17,2.07.99,2.69,1.07.82,2.58.38,3.72-.05,1.22-.46,2.37-1.12,3.39-1.94s2.57-2.15,2.91-3.42c.6-2.25-4.26.53-4.78.93-2.09,1.64-4.24,4.35-4.48,7.08s1.64,4.9,2.97,7.06c.83,1.36,1.44,2.73,1.45,4.35.01,1.51-.37,3.12.37,4.53.6,1.14,1.84,2.01,2.94,2.62.96.53,2.65,1.27,3.75.76.94-.44.66-1.83.65-2.65-.03-1.73-.06-3.55-.41-5.25-.15-.76-.54-2.13-1.38-2.43-1.09-.39-1.17,1.2-1.26,1.87-.29,2.1-.41,4.21-.37,6.33.02,1.13.09,2.25.2,3.38.06.59.11,1.3.51,1.78,1.71,2.04,4.43-4.19,4.87-5.23,1.42-3.38,1.67-6.94.48-10.42s-2.65-7.1-5.06-9.84c-.21-.24-.57.11-.35.35h0Z"/>
  <path class="cls-1" d="M46.13,25.74c.72-1.06,1.26-2.22,1.57-3.47.19-.8.61-2.21.08-2.94-1.25-1.71-3.36,2.23-3.73,3-.55,1.13-.97,2.31-1.49,3.45-.24.54-.5,1.08-.84,1.57-.19.27-.4.53-.65.74-.11.09-.56.44-.76.44-.43,0-.52-.42-.56-.71-.1-.68.08-1.52.14-2.2.07-.79.17-1.57.26-2.36.19-1.49.37-2.99.66-4.47.6-3.04,1.87-6.12,4.67-7.74.28-.16.03-.59-.25-.43-4.7,2.71-5.14,8.82-5.7,13.65-.08.73-.16,1.46-.21,2.19-.04.62-.19,1.38-.06,2,.19.87,1.11.66,1.7.31.92-.53,1.47-1.55,1.91-2.48.55-1.18.99-2.41,1.55-3.58.3-.64.64-1.27,1.05-1.85.23-.33.56-.89.94-1.07l.16-.14.92.37c.06.1-.01.43-.02.55-.13,1.77-.77,3.45-1.77,4.92-.18.27.25.52.43.25h0Z"/>
  <path class="cls-1" d="M44.96,26.89c.39-.37.73-.79,1-1.26.07-.11.03-.28-.09-.34s-.27-.03-.34.09c-.06.11-.13.22-.2.32-.04.05-.07.1-.11.16,0,.01-.02.02-.03.03,0,0-.04.05-.02.03.02-.02,0,.01-.01.02-.01.01-.02.03-.03.04-.16.2-.33.39-.52.56-.1.09-.1.26,0,.35.1.09.25.1.35,0h0Z"/>
  <path class="cls-1" d="M45.64,11.12c2.24-1.26,2.47-4.02,3.84-5.97s3.75-2.93,6.07-2.68c.32.03.32-.47,0-.5-2.22-.24-4.51.64-6,2.3-1.7,1.9-1.81,5.09-4.15,6.41-.28.16-.03.59.25.43h0Z"/>
  <path class="cls-1" d="M67.51,23.29c-.57,1.6-1.14,3.2-1.72,4.79s-1.09,3.26-2.36,4.37c-1.03.9-2.44,1.18-3.5,2.04-1.25,1.03-1.93,2.52-3.76,2.61-3.66.18-5.4-3.82-6.36-6.7-1.09-3.3-1.94-7.11-1.26-10.57.3-1.53.93-3.03,1.96-4.21.93-1.07,2.18-1.74,3.35-2.51,2.09-1.37,3.34-3.02,3.26-5.61-.04-1.06-1.17-4.76.63-4.95.78-.08,1.68.5,2.37.82.81.38,1.6.79,2.38,1.22,1.43.77,3.01,1.5,4.2,2.63s2.13,2.7,2.96,4.11,1.13,3.05,1.85,4.55c.66,1.37,1.97,2.11,3,3.16,1.24,1.26,2.12,2.86,2.55,4.58s.67,4.25-.76,5.54l.43.18c-.09-2.03-.29-4.1-.75-6.09-.36-1.58-1.07-2.53-2.35-3.5-1.57-1.18-2.51-2.65-3.43-4.36-.72-1.34-1.44-2.74-2.57-3.79-.64-.6-1.7-1.24-2.24-.18s-.22,2.9.1,3.99c.4,1.37,1.24,2.47,2.47,3.18,1.62.94,3.36,1.34,4.59,2.86,1.62,2,1.4,4.49,1.6,6.9.19,2.22,1.08,4.04,2.2,5.94l.34-.34c-4.51-3.37-8-8.03-9.9-13.34-.8-2.24-1.14-4.87-2.92-6.61-.78-.75-1.66-1.12-2.72-1.28-.87-.14-1.61-.2-2.29-.84s-.9-1.48-1.14-2.33c-.09-.31-.57-.18-.48.13.28.98.6,2.06,1.41,2.74,1.02.85,2.44.6,3.6,1.09,3.08,1.28,3.37,5.61,4.47,8.33,2.02,4.99,5.41,9.31,9.71,12.53.21.16.46-.14.34-.34-.68-1.15-1.37-2.31-1.76-3.6-.33-1.11-.39-2.25-.44-3.4-.08-1.71-.15-3.45-1.01-4.98s-2.13-2.41-3.66-3.11c-1.95-.88-3.51-1.81-4.04-4.04-.16-.66-.46-2.37-.11-3.04.58-1.11,1.78.31,2.1.69.28.34.54.7.77,1.07.95,1.48,1.61,3.14,2.66,4.56s2.97,2.17,3.75,3.76c1.04,2.13,1.08,5.06,1.18,7.37,0,.22.26.32.43.18,2.05-1.86,1.22-5.73.22-7.91-.71-1.53-1.75-2.75-3.03-3.84-.69-.58-1.38-1.15-1.82-1.96-.49-.9-.64-1.95-1.01-2.9-1.27-3.19-3.51-6.1-6.51-7.78-1.74-.97-3.5-2-5.36-2.72-.82-.32-1.98-.63-2.63.18-.79.99-.02,3.21.07,4.29.18,2.17-.39,3.93-2.15,5.26-1.2.91-2.59,1.55-3.7,2.58s-1.89,2.39-2.35,3.83c-1.13,3.56-.35,7.62.68,11.12.82,2.78,2.05,6.29,4.94,7.54,1.37.59,3.03.62,4.27-.28.76-.55,1.24-1.38,1.95-1.98.77-.65,1.72-.95,2.59-1.44,1.4-.79,2.22-2.09,2.82-3.55.88-2.13,1.59-4.35,2.37-6.52.11-.3-.37-.43-.48-.13h0Z"/>
  <path class="cls-1" d="M51.44,35.8c.74,1.23,1.49,2.52,1.72,3.96.27,1.7-.47,2.91-1.53,4.13-1.38,1.6-2.42,3.12-2.72,5.27-.64,4.69,2.01,8.84,4.5,12.56l.34-.34c-1.2-.91-2.33-1.89-3.4-2.96-.23-.23-.58.13-.35.35,1.1,1.09,2.26,2.1,3.5,3.04.2.15.48-.14.34-.34-2.76-4.12-6.05-9.34-3.83-14.44.87-1.99,2.97-3.23,3.56-5.35s-.62-4.34-1.7-6.14c-.17-.28-.6-.02-.43.25h0Z"/>
  <path class="cls-1" d="M50.03,46.67c2.77,4.24,4.01,9.15,5.02,14.05.55,2.64,1.11,5.29,1.48,7.96.32,2.31.86,5.37-1.11,7.11-.24.21.11.57.35.35,1.53-1.36,1.66-3.46,1.5-5.37-.25-3-.88-5.97-1.48-8.92-1.09-5.36-2.3-10.8-5.33-15.44-.18-.27-.61-.02-.43.25h0Z"/>
  <path class="cls-1" d="M57.36,44.34c-.51-1.14-.25-2.43-.08-3.62s.26-2.3-.21-3.38c-.13-.29-.56-.04-.43.25.5,1.14.24,2.44.07,3.63s-.26,2.29.22,3.37c.13.29.56.04.43-.25h0Z"/>
  <path class="cls-1" d="M60.13,36.55c3.28,2.8,3.07,7.35,3.48,11.26.18,1.72.52,3.4,1.25,4.98.45.96,1.01,1.87,1.39,2.86.47,1.21.68,2.5.83,3.78.25,2.14.43,4.29.65,6.43.17,1.74.3,3.54,1.05,5.15.58,1.23,1.58,2.36,2.89,2.81.99.34,2.28.32,2.81-.73.7-1.37-.16-3.42-.53-4.77-.56-2.02-1.23-4.02-1.71-6.07s-.54-4.01-.8-6.03c-.19-1.49-.59-2.93-1.57-4.1-1.34-1.6-3.06-2.51-3.53-4.72s.31-4.49,1.03-6.59,1.45-4.23,2.17-6.34c.19-.55.38-1.1.56-1.64.08-.23.16-.47.24-.7.16-.48.04-.74.63-.66s.49.66.59,1.21l.32,1.86c.2,1.16.4,2.33.6,3.49.14.78.28,1.62.76,2.27.72.98,1.84.92,2.6.02,2.04-2.39,1.37-6.53-1.75-7.55-.19-.06-.34.13-.31.31.58,2.73,2.24,5.18,2.46,8,.06.72.01,1.45-.19,2.15-.18.62-.66,1.09-1.4.86-.26-.08-.55-.66-.7-.86-.92-1.17-1.84-2.33-2.76-3.5-.11-.14-.38-.06-.42.11-.4,2.06-.12,4.15.81,6.03.47.94,1.1,1.81,1.86,2.53.35.33,1.06.68,1.31,1.06.55.83-.04,1.82-.03,2.69.01.94.58,1.79,1.16,2.48.47.55,1.01,1.04,1.45,1.63.25.34,1.05,1.24-.41,1.1-.27-.03-.72-.48-.91-.64-2.25-1.95-3.48-5.27-4.15-8.09-.06-.27-.51-.22-.49.07.25,3.96,1.76,7.76,4.39,10.74,1.51,1.71,4.03,3.16,3.86,5.75-.08,1.17-.45,2.29-.52,3.46s.07,2.3.35,3.43l.37-.28c-2.4-1.49-3.16-4.34-3.78-6.92-.08-.32-.52-.18-.48.13.17,1.25.34,2.5.51,3.75.09.63.18,1.25.26,1.88.1.79.56,3.23-1.84,2.04-.29-.14-.54.29-.25.43,1.27.63,2.55.49,2.69-1.12.08-.94-.18-1.96-.31-2.89-.19-1.41-.39-2.81-.58-4.22l-.48.13c.66,2.72,1.49,5.66,4.01,7.22.19.12.42-.08.37-.28-.36-1.44-.45-2.89-.22-4.36.16-1.01.49-2.01.41-3.04-.14-1.75-1.44-2.94-2.64-4.07-3.31-3.11-5.32-7.24-5.61-11.78l-.49.07c.69,2.91,1.97,6.29,4.28,8.31.51.45,1.69,1.42,2.45.93.7-.45.09-1.39-.24-1.87-1.04-1.51-3.01-2.61-2.53-4.72.25-1.12.44-1.73-.52-2.53-2.71-2.25-4.26-5.32-3.57-8.91l-.42.11c.68.86,1.36,1.72,2.03,2.58.5.63,1.07,1.66,1.79,2.07.99.56,1.53-.35,1.81-1.18,1.23-3.65-1.48-7.16-2.21-10.6l-.31.31c2.07.67,2.9,2.86,2.4,4.88-.25,1-1.69,3.65-2.84,1.66-.48-.83-.55-1.9-.71-2.83-.32-1.83-.47-3.8-.96-5.59-.17-.62-.6-1.49-1.37-.92-.31.23-.42.99-.52,1.3-.32.94-.64,1.88-.96,2.82-.7,2.04-1.4,4.07-2.09,6.11-.97,2.84-2.02,6.28-.12,9,.76,1.08,1.91,1.79,2.75,2.8,1.34,1.63,1.45,3.77,1.61,5.78.3,3.6,1.46,6.95,2.4,10.41.2.72.4,1.45.53,2.19.1.55.27,1.21.07,1.76-.43,1.12-1.55,1-2.33.72-2.07-.74-2.93-2.98-3.28-4.95-.66-3.81-.43-7.79-1.38-11.55-.47-1.88-1.6-3.44-2.26-5.25-.75-2.06-.84-4.27-1.01-6.43-.26-3.25-.79-6.73-3.41-8.97-.24-.21-.6.14-.35.35h0Z"/>
  <path class="cls-1" d="M79.97,65.21c1.61,2.45,2.17,5.42,3.81,7.86.18.27.61.02.43-.25-1.64-2.43-2.2-5.4-3.81-7.86-.18-.27-.61-.02-.43.25h0Z"/>
  <path class="cls-1" d="M68.04,69.28c-2.47,1.08.06,4.83-2.64,5.78-1.17.42-3.05.57-4.01-.32-1.16-1.08-1-3.46-1.18-4.93-.31-2.61-.54-5.36-1.88-7.68-.31-.54-2.5-3.63-3.19-2.17-.04.08-.05.18,0,.25.54.75,1.39,1.81,2.46,1.47.8-.26,1.08-1.17,1.05-1.93-.07-1.62-1.54-2.75-1.63-4.41-.11-1.88.46-4.17,1.09-5.94.59-1.66,1.84-2.96,2.42-4.61.45-1.27.38-2.69-.16-3.92-.24-.54-.71-.92-.95-1.42-.08-.17-.13-1.16.08-1.32.07-.05.8.27.8.27.48.19,1.5.55,1.78,1.01.14.23.25,1.27.14,1.46-.08.15-.27.24-.38.37-.12.13-.26.25-.34.41-.12.25-.17.49-.04.76.29.61,1.17.73,1.56,1.3.64.95.64,2.23.16,3.25-1.06,2.27-3.68,3.03-5.81,3.91-.29.12-.16.61.13.48,2.36-.98,5.26-1.86,6.25-4.49.3-.79.35-1.67.11-2.49-.12-.42-.33-.83-.61-1.17-.27-.32-.84-.49-1.06-.78-.58-.76.92-1.43.86-2.29-.08-1.08-1.5-1.76-2.32-2.11-.6-.26-1.61-.78-2.16-.16-.52.59,0,1.31.36,1.79,1,1.35,1.68,2.71,1.28,4.45-.36,1.59-1.57,2.81-2.24,4.27s-.92,2.89-1.19,4.37c-.23,1.27-.47,2.61-.04,3.87s1.74,2.36,1.34,3.77c-.3,1.08-1.48.77-2.12.09-.31-.33.09-.24.52.14.66.58,1.18,1.32,1.59,2.1,1.61,3.07,1.49,6.79,1.99,10.14.16,1.09.47,2.15,1.52,2.67.94.47,2.13.36,3.13.19s2-.57,2.41-1.6c.53-1.33-.48-3.7,1.16-4.42.29-.13.04-.56-.25-.43h0Z"/>
</svg>