<?xml version="1.0" encoding="UTF-8"?>
<svg id="Layer_1" data-name="Layer 1" xmlns="http://www.w3.org/2000/svg" version="1.1" viewBox="0 0 80.76 82.17">
  <defs>
    <style>
      .cls-1 {
        fill: #b0987c;
        stroke-width: 0px;
      }
    </style>
  </defs>
  <path class="cls-1" d="M2.51,19.84c3.25-1.17,5.65-3.82,8.11-6.13,1.5-1.42,2.99-3.15,4.81-4.16s4.04-1.31,6.05-1.77,3.93-.89,5.89-1.34c1.02-.23,2.03-.49,3.05-.69,1.44-.29,2.46-.08,3.7.71,1.76,1.12,3.67,2.3,5.21,3.72s1.75,3.33,1.62,5.33c-.08,1.27-1.19.53-1.51-.26-.21-.53-.23-1.1-.37-1.65-.18-.71-.5-1.37-.96-1.95-.43-.54-.96-1-1.57-1.34-1.01-.56-2.96-.66-2.99-2.21l-.25.25c2.83-.25,3.22,3.69,3.38,5.71.08,1.08,0,2.2-.55,3.15-.28.48-.67.95-1.19,1.2-1.08.53-2.27-.35-1.91-1.58.39-1.32,1.64-2.33,1.11-3.81-.44-1.25-1.78-1.97-2.44-3.08-.14-.23-.56-.08-.46.19.69,1.78,1.1,3.64,1.15,5.55.04,1.39-.34,2.48-1.76,2.92-.94.29-1.9.31-2.87.22l.18.43c2.8-2.27,1.84-6.05.76-8.95-.09-.25-.49-.23-.49.07,0,1.68,0,3.35-.01,5.03,0,.76.04,1.54-.01,2.3-.02.27,0,.69-.15.93-.92,1.38-1.48.13-1.66-.51-.41-1.42-.07-3.06-.28-4.53-.18-1.22-.61-2.31-1.5-3.18-.23-.23-.58.13-.35.35,1.99,1.95,1.18,4.68,1.59,7.12.14.81.57,1.99,1.61,1.89s1.22-1.4,1.25-2.22c.1-2.39.01-4.79.02-7.18l-.49.07c1.01,2.74,2.03,6.31-.64,8.46-.19.15-.01.41.18.43,1.61.16,4.3.02,4.97-1.81.38-1.05.18-2.4.04-3.48-.18-1.39-.54-2.74-1.04-4.04l-.46.19c.59.99,1.66,1.62,2.21,2.61.89,1.6-.75,2.74-1.01,4.23-.33,1.91,1.56,2.63,3.01,1.64,1.9-1.29,1.85-3.82,1.55-5.83s-.96-5.23-3.72-4.99c-.13.01-.25.1-.25.25.02.93.56,1.52,1.39,1.91,1.47.69,2.74.97,3.64,2.47.7,1.17.69,5.2,3.11,4.23.11-.05.17-.12.18-.24.15-1.66.3-3.48-.44-5.03-.81-1.7-2.71-2.79-4.19-3.82s-3.29-2.67-5.26-2.54c-2.12.13-4.3.9-6.36,1.37-4.07.92-8.73,1.28-11.95,4.17-1.74,1.57-3.41,3.22-5.13,4.83s-3.45,3.12-5.67,3.91c-.3.11-.17.59.13.48h0Z"/>
  <path class="cls-1" d="M10.34,24.19c.96-2.65,3.74-4.27,5.92-5.83,1.23-.88,2.49-1.75,3.8-2.52s2.87-1.41,4.24-.45l.25-.43c-.57-.29-1.03-.66-1.4-1.18l-.09.34c.86-.41,1.71-.81,2.57-1.22.29-.14.04-.57-.25-.43-.86.41-1.71.81-2.57,1.22-.11.05-.16.24-.09.34.42.59.93,1.04,1.58,1.36.29.15.51-.25.25-.43-1.14-.8-2.53-.63-3.74-.09-1.63.73-3.12,1.86-4.57,2.89-2.37,1.69-5.34,3.42-6.38,6.29-.11.3.37.43.48.13h0Z"/>
  <path class="cls-1" d="M25.19,13.68c-.05,3.19.16,6.36.61,9.52.03.19.3.23.42.11,2.78-2.75,7.22-3.49,10.61-1.35s3.22,7.19.94,9.92c-1.02,1.22-2.43,2.07-4,2.35-.97.17-1.97.14-2.95.07s-1.94-.09-2.81-.49c-1.48-.68-2.42-2.21-2.81-3.73-.24-.94-.29-1.92-.27-2.9.01-.65-.14-2.78.46-3.16l-.37-.15c.16.55.16,1.02.02,1.59-.07.26.34.46.46.19,1.33-2.91,4.58-4.26,7.66-4.12,3.58.16,5.02,3.74,4.65,6.9-.19,1.61-.71,2.89-2.16,3.73-1.57.9-2.99,1.41-4.84,1.05-1.56-.3-2.98-.89-3.95-2.22-.91-1.26-1.19-2.79-1.15-4.31l-.49.07c.36,1.34.69,3.08,1.56,4.2.72.93,1.92,1.07,3.02,1.17,1.43.12,3.25.52,4.6-.14,1.14-.56,1.93-1.79,2.34-2.95.94-2.65-.28-5.04-2.84-6.12-2.35-.98-5.37-.27-6.61,2.08s.17,6.14,2.67,7.12c.3.12.43-.37.13-.48-1.56-.61-2.18-2.04-2.59-3.57s-.02-3.04,1.26-4.07c2.31-1.86,6.59-1.01,7.64,1.94.47,1.33.02,2.97-.72,4.12-.47.73-1.11,1.43-1.98,1.66-.68.18-1.44.08-2.13.04-1.29-.08-3.27.09-4.26-.92s-1.28-2.93-1.62-4.21c-.07-.28-.48-.21-.49.07-.08,2.58.95,5.3,3.44,6.42,1.2.54,2.74.87,4.06.74s2.63-.84,3.7-1.56c2.12-1.43,2.28-4.78,1.68-7.03-.68-2.58-2.61-4.23-5.31-4.22-3.14.02-6.36,1.4-7.72,4.37l.46.19c.17-.65.16-1.21-.02-1.86-.04-.15-.23-.24-.37-.15-.37.24-.45.53-.51.97-.15.98-.2,2.01-.19,3,0,1.61.27,3.24,1.13,4.63,1.68,2.72,5.26,3.01,8.17,2.56s5.36-2.82,5.99-5.72c.68-3.14-.53-6.61-3.54-7.98-3.5-1.6-7.58-.76-10.3,1.92l.42.11c-.44-3.11-.64-6.24-.59-9.38,0-.32-.49-.32-.5,0h0Z"/>
  <path class="cls-1" d="M32.29,24.38c.32,0,.32-.5,0-.5s-.32.5,0,.5h0Z"/>
  <path class="cls-1" d="M33.25,24.68c1.28.31,1.94,1.69,1.77,2.93-.19,1.33-1.18,2.75-2.42,3.3-.29.13-.04.56.25.43,1.44-.63,2.54-2.31,2.68-3.85.13-1.42-.71-2.94-2.15-3.28-.31-.08-.45.41-.13.48h0Z"/>
  <path class="cls-1" d="M37.3,12.85c1.01.75.62,2.16.91,3.22.19.7.64,1.21,1.31,1.48.46.19.57.08.7.54.15.49.05,1.19.12,1.71.13.93.4,1.86.94,2.65s1.27,1.09,1.92,1.7c1.03.96,1.04,2.87,1.18,4.19.03.28.16.73.09,1.01-.14.54-.64,1.07-1.08,1.37-.32.23-.65.46-.91.76-.51.59-.71,1.27-.51,2.03.08.31.56.18.48-.13-.55-2.08,2.21-2.02,2.51-3.62.12-.63-.08-1.44-.16-2.06-.1-.79-.19-1.63-.38-2.41-.34-1.38-1.43-1.68-2.34-2.63-1.3-1.36-1.34-3.37-1.38-5.13,0-.1-.08-.22-.18-.24-.78-.12-1.5-.41-1.79-1.2-.22-.57-.15-1.22-.22-1.82-.09-.76-.34-1.38-.96-1.84-.26-.19-.51.24-.25.43h0Z"/>
  <path class="cls-1" d="M44.76,29.92c.21-.01.55.04.71-.13s.1-.53.1-.74c0-.59,0-1.19,0-1.78s0-1.16-.05-1.74c-.02-.25-.16-.35-.4-.38-.3-.04-.6-.08-.9-.12-.13-.02-.25.13-.25.25,0,.15.12.23.25.25.23.03.46.06.69.09.06,0,.11.02.17.02-.05-.14-.07-.15-.05-.03-.02.11,0,.24.01.35.02.45.03.9.03,1.35s0,.9,0,1.35c0,.23,0,.46,0,.7,0,.06,0,.12,0,.17.17-.11.18-.16.04-.13-.1-.02-.25.01-.35.02-.32.02-.32.52,0,.5h0Z"/>
  <path class="cls-1" d="M41.64,68.58c-1.71-3.98-3.42-7.95-5.02-11.98-.78-1.94-1.53-3.9-2.24-5.87-.62-1.7-1.08-3.52-1.86-5.15-1.5-3.11-5.04-4.63-6.61-7.76-.83-1.66-.9-3.46-1.92-5.05-1.25-1.96-1.64-4.01-.36-6.09l-.47-.13c.32,2.54.91,5.13,2.68,7.08s4.07,2.37,6.53,2.2c1.99-.14,4.08-.77,5.51-2.23,1.8-1.84,1.86-4.54,2.73-6.84l-.42.11c.65.53.34,1.44.5,2.16.19.88.87,1.46.65,2.43-.26,1.16-1.34,2.03-1.81,3.11-.55,1.26-.09,2.24.48,3.38,1.05,2.1,1.02,3.95.84,6.22-.13,1.62.43,2.94,1.17,4.35.89,1.69,1.86,3.33,2.82,4.98,2.09,3.6,4.18,7.21,6.27,10.81.16.28.59.03.43-.25-2.13-3.67-4.26-7.35-6.39-11.02-.99-1.71-2.01-3.41-2.9-5.17-.48-.95-.91-1.9-.93-2.98-.03-1.02.24-2.03.23-3.06-.02-1.63-.56-3.03-1.27-4.46-.54-1.08-.67-1.92-.07-3.01.33-.59.76-1.1,1.11-1.68.56-.91.74-1.71.33-2.71-.2-.5-.47-.89-.52-1.46-.02-.3,0-.61-.03-.91-.06-.47-.18-.78-.55-1.09-.15-.12-.35-.07-.42.11-.73,1.91-.82,4.14-2,5.87s-3.36,2.58-5.41,2.79c-2.34.25-4.7-.11-6.4-1.88s-2.36-4.41-2.67-6.87c-.03-.23-.33-.36-.47-.13-.8,1.31-1.11,2.84-.74,4.35.21.84.64,1.53,1.1,2.24.64,1,.94,1.95,1.22,3.07.94,3.69,3.89,5.44,6.25,8.15,1.48,1.69,1.95,4.09,2.7,6.16s1.57,4.23,2.4,6.32c1.62,4.06,3.34,8.08,5.07,12.1.13.29.56.04.43-.25h0Z"/>
  <path class="cls-1" d="M44.28,47.14c.77-.29,1.41.44,2.11.63.53.14.97.03,1.46-.19,1.41-.62,2.86-1.41,3.96-2.5,1.19-1.18,1.67-2.71,2.14-4.27.65-2.12,1.28-4.25,1.9-6.38.54-1.86,1.15-3.76,1.12-5.72s-.68-3.72-1.35-5.48c-1.22-3.17-2.82-6.01-5.34-8.32-2.72-2.48-6.04-4.19-9.53-5.29-.17-.05-.3.09-.32.24-.17,1.6,1.37,2.27,2.73,2.33,2.71.12,5.37-.26,8.05.33,2.49.55,4.85,1.83,6.14,4.11,1.22,2.16,1.59,4.77,1.98,7.19.77,4.78,1.37,9.47,3.83,13.73,1.17,2.02,2.54,3.92,3.51,6.05,1.18,2.56,1.42,5.22.81,7.97-.19.84-.9,2.12-.61,2.98.25.76,1.14.87,1.79,1.09,1.36.45,2.54,1.34,3.23,2.62.14.27.33.62.38.92.24,1.41-.58,1.6-1.47,1.93-.69.26-1.39.45-2.11.62-.31.07-.18.55.13.48,1.43-.33,4.24-.76,4.02-2.74-.2-1.78-1.76-3.34-3.32-4.04-.38-.17-.83-.23-1.2-.41-1.01-.48-.86-1.37-.62-2.24.34-1.23.59-2.5.64-3.78.09-2.25-.55-4.37-1.57-6.36-1.12-2.2-2.6-4.2-3.75-6.39-1.28-2.43-1.96-5.06-2.44-7.75s-.76-5.26-1.33-7.86c-.46-2.12-1.13-4.3-2.68-5.89-1.71-1.76-4.14-2.61-6.52-2.93-1.49-.2-2.99-.2-4.49-.17-1.4.03-4.87.55-4.62-1.78l-.32.24c3.71,1.17,7.23,3.04,9.99,5.82,1.47,1.48,2.65,3.19,3.54,5.08.97,2.06,1.94,4.36,2.24,6.62.34,2.53-.52,5-1.22,7.4-.66,2.25-1.3,4.5-2.02,6.73-.76,2.33-2.22,3.69-4.34,4.81-.52.28-1.34.82-1.92.81-.43,0-.88-.32-1.25-.5-.51-.25-.93-.41-1.48-.2-.3.11-.17.6.13.48h0Z"/>
  <path class="cls-1" d="M68.74,61.65c-2.12,1.17-4.39,2.89-5.47,5.12-.47.97-.98,3.76.86,3.61,1.55-.13,3-1.33,4.59-1.28l.88.21-.21,1.96c-.22.26-1.23.41-1.6.53-.42.14-.81.32-1.19.54-1.81,1.07-2.92,2.95-3.11,5.02-.01.14.13.24.25.25,1.17.13.95-2.29.91-2.96s-.19-1.4-.53-2.01c-.17-.31-.4-.52-.61-.79-.07-.09-.3-.2-.35-.3-.3-.7.11-1.38.63-1.77,2.24-1.64,6.82-3.35,5.62-7.03-.43-1.32-1.69-1.95-2.91-2.39-.93-.34-1.89-.6-2.86-.83-.39-.09-1.08-.17-1.37-.44-.7-.66-.53-1.77-.26-2.56.4-1.17,1.17-1.92,1.96-2.83.44-.5.85-1.09.93-1.77.15-1.26-.84-2.01-1.94-2.33-2.14-.62-4.27-.1-6.42,0-.7.03-1.37-.02-2.01-.31-.71-.32-.79-.48-.93-1.25-.15-.84-.11-.75.35-1.3.5-.59.8-1.01.68-1.8l-.31.31c.9.36,1.79.02,2.24-.83.15-.28-.28-.54-.43-.25-.33.61-1.05.85-1.68.6-.2-.08-.33.14-.31.31.09.61-.54,1.23-.89,1.68-.15.19-.3.39-.39.62-.14.39-.1.78.07,1.15.49,1.07,1.78,1.52,2.87,1.59,2.15.13,4.19-.54,6.36-.16.32.06.65.12.96.24,1.1.42,1.47,1.49.92,2.57-.39.76-1.19,1.31-1.69,2-.69.96-1.53,2.74-1.07,3.95.42,1.1,1.87,1.21,2.84,1.46,2.03.53,5.2,1.23,4.9,3.95-.25,2.24-2.46,3.4-4.2,4.43-.83.49-3,1.54-2.44,2.87.25.6.97.91,1.29,1.49.37.67.47,1.45.47,2.2,0,.27-.03,2.07-.43,2.02l.25.25c.12-1.37.69-2.65,1.65-3.64,1.05-1.07,2.25-1.29,3.57-1.83s2.15-2.14.64-3.02c-.73-.42-1.59-.27-2.35-.06-.67.18-1.33.42-1.99.63-.89.28-2.15.6-2.21-.72-.14-2.89,3.49-5.42,5.69-6.63.28-.16.03-.59-.25-.43h0Z"/>
  <path class="cls-1" d="M56.54,44.45c1.31-2.06,1.44-4.52,1.42-6.89-.02-2.65-.14-5.33-1.07-7.84-.11-.3-.59-.17-.48.13.89,2.39,1.02,4.94,1.05,7.47.03,2.36-.05,4.82-1.35,6.88-.17.27.26.52.43.25h0Z"/>
  <path class="cls-1" d="M65.48,51.38c-.42-3.73-4.23-5.67-5.19-9.17-.7-2.54.13-5.21.95-7.61.73-2.16,1.42-4.28,1.59-6.56.29-3.86-.21-8.63-2.7-11.77-1.22-1.54-2.91-2.57-4.56-3.59-1.96-1.22-3.47-2.7-5.18-4.2s-3.65-2-5.89-2.15c-2.93-.19-5.86-.28-8.79-.42l.18.43c5.37-4.22,12.48-2.01,17.91.84,2.75,1.44,5.07,2.96,6.54,5.79.58,1.12,1.2,2.13,2.01,3.1,1.07,1.27,2.22,2.47,2.84,4.05,1.16,2.96.89,6.42.94,9.54s.12,6.44.63,9.62c.79,4.96,2.81,10.05,6.85,13.26.51.41,1.07.74,1.61,1.13.98.7,1.39,1.58,1.69,2.73.42,1.61.58,3.4.02,5-1.09,3.14-4.75,3.89-6.72,6.31-.2.25.15.6.35.35,1.74-2.14,4.7-2.9,6.22-5.24,1.43-2.2,1.21-5.38.23-7.72-.52-1.24-1.45-1.76-2.5-2.5-1.4-1-2.6-2.26-3.58-3.66-1.74-2.49-2.83-5.41-3.43-8.38-.76-3.74-.82-7.57-.87-11.37-.04-3.14.19-6.63-1.11-9.58-.52-1.17-1.31-2.15-2.14-3.12-1.17-1.36-2.02-2.74-2.87-4.31-1.43-2.62-3.87-4.08-6.43-5.43-5.66-2.97-12.94-5.15-18.51-.77-.18.14-.02.42.18.43,2.49.12,4.97.24,7.46.36s4.76.28,6.71,1.93c1.41,1.19,2.59,2.55,4.13,3.58,1.68,1.13,3.53,2.05,4.99,3.48,3.12,3.06,3.68,8.37,3.31,12.51-.39,4.4-3.22,8.47-2.7,12.97.21,1.79,1.06,3.24,2.15,4.63,1.33,1.69,2.97,3.29,3.22,5.53.04.32.54.32.5,0h0Z"/>
  <path class="cls-1" d="M70.16,67.71c-.29,1.06-.27,2.15-.28,3.24,0,.66-.04,1.32-.19,1.97-.11.51-.27,1-.34,1.52-.12.96.19,1.82.57,2.68.47,1.07,1.07,2.3.44,3.43-.16.28.27.53.43.25,1.15-2.06-.95-3.84-.98-5.86-.02-1.11.48-2.2.54-3.31.07-1.27-.06-2.55.28-3.8.08-.31-.4-.44-.48-.13h0Z"/>
</svg>