<?xml version="1.0" encoding="UTF-8"?>
<svg id="Layer_1" data-name="Layer 1" xmlns="http://www.w3.org/2000/svg" version="1.1" viewBox="0 0 142.81 87.69">
  <defs>
    <style>
      .cls-1 {
        fill: #b0987c;
        stroke-width: 0px;
      }
    </style>
  </defs>
  <path class="cls-1" d="M1.79,85.02c10.08.08,20.16.15,30.25.23l7.69.06,3.72.03c.95,0,2.19.25,3.12-.03,1.35-.41.62-2.07.46-3.04-.41-2.52-.38-5.11.06-7.62.38-2.2,1.17-4.59.33-6.78-.6-1.54-1.88-2.73-3.58-2.77l.18.43c1.22-1.19,2.7-1.84,4.41-1.91l-.24-.32c-1.17,3.47,1.06,8.04,5.24,7.19s3.74-5.88,3.25-8.94l-.24.32c2.16-.15,4.32-.26,6.47-.45,1.23-.11,2.23-.49,2.76-1.67.61-1.36.49-3.05.48-4.5-.01-2.07-.15-4.13-.42-6.18-.5-3.89-1.46-7.72-2.84-11.39-.46-1.23-.88-2.7-2.27-3.13-1.72-.54-3.81-.47-5.6-.67-1.04-.11-3.23-.85-3.69.55-.52,1.56.19,3.74.84,5.15.13.29.57.04.43-.25-.49-1.06-.79-2.16-.86-3.33-.04-.69-.1-.96.42-1.46s.71-.39,1.43-.31c1.97.21,3.95.39,5.92.63.64.08,1.26.14,1.76.64.43.42.65,1.11.87,1.66.34.85.65,1.72.94,2.59.6,1.81,1.1,3.67,1.49,5.54.79,3.8,1.15,7.69,1.05,11.56-.02.8-.04,1.63-.3,2.39-.43,1.27-1.35,1.57-2.59,1.69-2.09.2-4.2.29-6.29.44-.17.01-.27.15-.24.32.42,2.63.82,6.73-2.14,8.07-1.57.71-3.52.16-4.64-1.13-1.24-1.43-1.33-3.47-.75-5.19.05-.15-.08-.32-.24-.32-1.83.08-3.45.77-4.76,2.05-.16.15-.04.42.18.43,2.47.05,3.52,2.67,3.44,4.8s-.77,4.13-.95,6.23c-.16,1.85-.09,3.71.18,5.55.14.91.8,2.31-.33,2.67-.48.15-1.23.01-1.74,0h-1.74c-8.68-.08-17.35-.15-26.03-.21l-14.88-.11c-.32,0-.32.5,0,.5h0Z"/>
  <path class="cls-1" d="M48.13,63.02c.23-2.23.33-4.47.28-6.72-.02-1.11-.11-2.21-.18-3.32-.08-1.32.21-2.37.64-3.59.63-1.83-.25-4.29,1.1-5.79.6-.66,1.43-1.12,2.05-1.78s1.06-1.32,1.47-2.08l-.39.05c2,1.71-.21,4.08-1.04,5.73-.57,1.13-.79,2.32-.2,3.48.04.07.14.13.22.12,1.64-.21,3.23-.6,4.77-1.21s4.72-2.59,5.48-.01l.17-.31c-2.13.89-4.42,1.63-6.43,2.77-1.29.73-2.4,1.76-2.45,3.32,0,.18.16.27.32.24,1.42-.25,2.85-.5,4.27-.75s3.51-1,4.91-.5c.61.02.75.31.41.88.11.46-.02.73-.4.8-.32.21-.83.32-1.18.44-.68.24-1.36.49-2.04.73-1.44.52-2.88,1.03-4.31,1.55-.2.07-.26.34-.06.46,2.3,1.35,5.49.06,7.51,1.91l.18-.43c-2.04.13-4.07.38-6.08.75-.14.02-.2.19-.17.31.5,2.18.93,4.44,1.01,6.68.09,2.68-1.32,4.34-4.03,4.33-1.81,0-3.86-.63-5.21-1.88-.84-.77-1.26-1.69-1.27-2.83,0-.93.15-1.79-.1-2.7-.08-.31-.57-.18-.48.13.34,1.29-.15,2.62.26,3.9.28.89.9,1.62,1.63,2.18,1.59,1.24,3.85,1.85,5.85,1.67,5.72-.53,3.67-7.93,2.83-11.61l-.17.31c1.97-.36,3.95-.6,5.95-.73.2-.01.35-.27.18-.43-2.12-1.94-5.25-.61-7.61-1.99l-.06.46c2.27-.82,4.54-1.62,6.81-2.45.9-.33,2.25-.8,1.84-2.04-.49-1.46-2.33-1.08-3.45-.89-2.38.41-4.75.83-7.12,1.24l.32.24c.06-1.76,1.71-2.71,3.14-3.37,1.76-.81,3.58-1.5,5.37-2.25.12-.05.22-.16.17-.31-.37-1.27-1.64-1.78-2.89-1.59-.87.13-1.66.57-2.45.93-1.13.51-2.29.91-3.5,1.18-.53.12-1.55.51-1.93-.16-.34-.61.18-1.8.45-2.35.44-.89,1.1-1.67,1.5-2.59.55-1.27.58-2.79-.54-3.74-.12-.1-.31-.1-.39.05-.54,1-1.22,1.89-2.08,2.64-.6.52-1.33.93-1.77,1.61-1.02,1.6-.21,3.77-.82,5.52-.33.96-.67,1.82-.69,2.84-.02,1.16.15,2.33.19,3.49.09,2.48,0,4.96-.26,7.44-.03.32.47.32.5,0h0Z"/>
  <path class="cls-1" d="M52.03,41.12c-.53-2.04-1.09-4.07-1.59-6.11-.04-.17-.3-.88-.23-1.08.12-.32,1.05-.78,1.35-.86.43-.11.97-.07,1.42-.09,1.1-.06,2.21-.09,3.31-.09,1.03,0,2.05.02,3.08.07.46.02.97,0,1.42.08.97.18,1.66.87,1.92,1.82.57,2.13,1.11,4.28,1.63,6.42,1,4.18,1.95,8.4,2.69,12.63.4,2.28.31,4.34-1.23,6.18-1.04,1.23-2.36,2.18-3.4,3.41-4.1,4.86-3.23,12.46-.96,17.95.87,2.09,3.28,4.87,5.85,3.44.47-.26.41-.32.41-.88,0-1.14,0-2.28.03-3.42.06-2.2.18-4.39.37-6.58.43-4.95,1.41-9.75,2.23-14.64.6-3.57.55-7.59-2.32-10.2l-.18.43c.95-.08,1.71-.38,2.45-.97.06-.05.09-.17.06-.24-1.32-3.63-3.02-7.2-3.61-11.04-.32-2.09-.25-4.24.44-6.25.65-1.88,1.77-3.56,2.64-5.34,1.7-3.45,2.64-7.2,4.43-10.61s4.05-6.4,7.05-8.69c3.52-2.69,7.87-4.19,12.31-3.78l-.13-.47c-3.17,1.71-5.71,4.29-7.38,7.47-.07.14-.01.33.15.37,7.46,1.91,13.45,8.53,14.4,16.22.3,2.41.1,4.84.11,7.27.01,2.18.3,4.25.89,6.35,1.18,4.18,3.24,8.97.34,12.94-3.23,4.44-9.23,4.49-13.91,2.65l-.07.49c6.25-.22,12.34-1.89,17.82-4.9l-.34-.09c.81,1.66,1.51,3.37,2.09,5.13.64,1.95,1.38,3.89-.2,5.58-2.22,2.37-5.37,3.91-8.49,4.63l.24.42c2.46-2.32,4.19-5.23,5.04-8.51.07-.27-.31-.44-.46-.19-2.88,4.99-9,7.57-14.58,6.14l.06.46c3.59-1.83,6.47-4.89,8.01-8.62,1.89-4.58,1.47-9.63.98-14.44-.26-2.52-.54-5.05-.55-7.58s.71-5.29.55-7.92c-.14-2.3-1.26-4.35-2.42-6.28-1.07-1.79-2.28-3.54-3.83-4.96-.81-.74-1.71-1.38-2.7-1.86s-2.05-.71-3.03-1.18c-4.2-2.06,1.48-5.98,3.72-6.81.3-.11.17-.59-.13-.48-2.2.82-8.07,4.61-4.64,7.25.65.5,1.48.78,2.25,1.05,1.21.43,2.3.91,3.33,1.69,1.94,1.47,3.37,3.49,4.61,5.56,1.44,2.41,2.53,4.77,2.33,7.64s-.61,5.34-.47,8.09c.25,5.14,1.38,10.3.73,15.45-.7,5.58-3.94,10.42-8.97,12.99-.19.1-.14.41.06.46,5.79,1.48,12.15-1.19,15.14-6.37l-.46-.19c-.84,3.2-2.51,6.02-4.92,8.29-.19.18,0,.47.24.42,3.3-.77,7.17-2.53,9.23-5.36,1.04-1.42.56-3.03.09-4.58-.64-2.11-1.46-4.15-2.42-6.14-.06-.12-.23-.15-.34-.09-5.41,2.97-11.4,4.62-17.57,4.84-.3.01-.32.39-.07.49,4.11,1.62,8.97,1.84,12.62-.98s3.87-6.82,2.83-10.86c-.61-2.36-1.52-4.66-1.91-7.07-.48-2.98-.1-6.01-.22-9.01-.17-4.09-1.58-7.97-4.07-11.22-2.71-3.53-6.51-6.13-10.83-7.24l.15.37c1.63-3.12,4.1-5.62,7.2-7.29.24-.13.1-.44-.13-.47-7.89-.73-14.72,4.33-18.69,10.78-2.23,3.62-3.36,7.64-5.05,11.51-.85,1.93-2.03,3.7-2.85,5.64-.75,1.78-1.06,3.67-.97,5.59.11,2.22.71,4.39,1.43,6.49.42,1.21.88,2.41,1.35,3.61.22.56.43,1.12.64,1.68.05.14.25.48.23.63-.08.79-1.33.95-1.88,1-.2.02-.35.27-.18.43,3.3,3.01,2.61,7.71,1.83,11.63s-1.46,8.21-1.84,12.37c-.19,2.11-.32,4.22-.39,6.33-.03,1.06-.05,2.11-.06,3.17,0,.52.12,1.2-.41,1.53-.44.27-1.25.15-1.71.03-2.24-.58-3.14-3-3.76-4.98-.53-1.69-.93-3.43-1.12-5.2-.37-3.39.02-7.01,2.02-9.87,1.8-2.56,5.1-4.08,5.5-7.47.2-1.71-.23-3.46-.55-5.14-.41-2.09-.84-4.17-1.3-6.25s-.94-4.15-1.45-6.21c-.47-1.88-.76-4.11-1.55-5.88-.66-1.49-2.86-1.12-4.21-1.17-2.29-.08-4.58-.05-6.87.12-1.22.09-2.25.34-2.03,1.79.34,2.31,1.2,4.65,1.78,6.92.08.31.56.18.48-.13h0Z"/>
  <path class="cls-1" d="M84.37,11.6c-.89-3.31-5.23-1.6-6.81.08-1.21,1.29-2.03,2.92-2.75,4.53-.97,2.16-1.91,4.33-2.7,6.56-1.63,4.63-2.09,9.18-1.23,14.02s1.72,9.66,4.43,13.6c.75,1.1,1.67,2.15,2.23,3.36.51,1.09.6,2.15-.3,3.06-.47.48-1.14.86-1.71,1.22-2.42,1.54-5.04,2.72-7.78,3.54-.2.06-.25.35-.06.46,4.66,2.74,9.97.76,14.15-1.92l-.37-.28c-.75,1.88-2.2,3.3-4.1,4-.2.08-.27.44,0,.48,3.56.56,7.21-1.35,8.58-4.72.89-2.18.94-4.69.98-7.01.05-2.84-.11-5.69-.28-8.53l-.32.24c2.66.46,5.3-.43,7.11-2.44.15-.16.04-.42-.18-.43-3.92-.14-7.82,1.31-11.17-1.49-2.73-2.28-3.91-5.77-4.42-9.18-.3-1.98-.41-3.99-.61-5.98-.18-1.85-.59-3.7-.63-5.56-.05-1.99.51-3.78,2.08-5.07s3.51-2.03,5.47-2.39c.32-.06.18-.54-.13-.48-3.41.64-7.3,2.55-7.84,6.34-.3,2.07.22,4.18.45,6.23.25,2.19.36,4.4.66,6.59.5,3.65,1.7,7.41,4.62,9.86,1.17.99,2.57,1.66,4.09,1.89,2.48.36,4.96-.34,7.44-.25l-.18-.43c-1.68,1.87-4.14,2.75-6.63,2.32-.15-.03-.33.07-.32.24.26,4.39.72,9.06-.11,13.41-.77,4.07-4.3,7.03-8.54,6.36v.48c2.08-.77,3.63-2.29,4.45-4.35.08-.2-.19-.39-.37-.28-4.02,2.58-9.13,4.57-13.64,1.92l-.06.46c1.95-.59,3.85-1.35,5.66-2.29,1.45-.76,3.63-1.72,4.54-3.17s-.06-3.16-.89-4.4c-1.39-2.07-2.78-3.93-3.61-6.31-.73-2.09-1.18-4.28-1.66-6.45-.54-2.44-1.01-4.91-1.05-7.41-.08-4.99,1.8-9.7,3.76-14.2.86-1.97,1.71-4.05,3.16-5.67.74-.83,1.66-1.53,2.75-1.82,1.26-.33,2.95-.04,3.33,1.4.08.31.57.18.48-.13h0Z"/>
  <path class="cls-1" d="M93.67,2.73c6.35-.47,12.57,3.74,14.3,9.91.91,3.26.74,6.68,1.09,10.01.34,3.13,1.25,5.88,3.17,8.39s4.55,4.89,5.64,8.09c.55,1.61.76,3.32.82,5.02.03.87.03,1.75.01,2.62,0,.33.07.75-.12,1.03-.28.41-1.13.23-1.59.2-1.23-.08-2.35-.16-3.39.62-.98.73-1.57,1.87-1.92,3.02-.47,1.56-.52,3.22-1.11,4.75-.64,1.65-1.82,3.04-2.22,4.79-.44,1.96-.52,3.97-1.01,5.94s-1.01,4.05-1.52,6.07c-.99,3.9-2.1,7.8-4.33,11.21-.11.17.04.36.22.38,4.89.34,9.79.42,14.68.25.1,0,.22-.07.24-.18.86-4.19,2.2-8.23,4.01-12.11,1.66-3.57,3.58-7.12,4.08-11.08.39-3.14-.12-6.58-2.34-8.97-1.9-2.05-4.77-3.13-7.5-2.31-.17.05-.25.29-.11.42,2.06,1.93,4.16,3.88,5.73,6.24,1.75,2.63,2.5,5.61,2.54,8.75.07,6.2-1.56,12.63-3.37,18.52-.05.16.08.31.24.32,7.2.4,14.4.5,21.61.32.32,0,.32-.51,0-.5-7.21.18-14.41.07-21.61-.32l.24.32c1.01-3.3,1.84-6.65,2.46-10.04.56-3.12,1.06-6.32.9-9.5-.15-2.91-.96-5.68-2.58-8.12s-3.71-4.39-5.8-6.35l-.11.42c4.44-1.33,8.34,2.44,9.13,6.57.95,4.95-1.38,9.67-3.44,14.01-.93,1.96-1.81,3.95-2.53,6-.38,1.08-.73,2.17-1.05,3.28-.29,1.04-.38,2.37-.83,3.34-.42.91-2.4.56-3.33.57-1.22.01-2.45.01-3.67,0-2.53-.04-5.06-.15-7.58-.32l.22.38c1.93-2.94,3.04-6.26,3.95-9.64.97-3.62,2.18-7.38,2.65-11.1.12-.94.14-1.89.37-2.81.25-.98.75-1.83,1.23-2.71.8-1.44,1.27-2.82,1.57-4.45s.62-3.57,1.99-4.76c1.57-1.36,3.51-.29,5.3-.87.11-.04.18-.13.18-.24.12-3.95.14-8.05-1.98-11.54s-5.51-5.95-6.83-9.88-.84-8.1-1.48-12.1c-.57-3.51-2.17-6.62-4.91-8.92s-6.57-3.69-10.31-3.41c-.32.02-.32.52,0,.5h0Z"/>
</svg>