<?xml version="1.0" encoding="UTF-8"?>
<svg id="Layer_1" data-name="Layer 1" xmlns="http://www.w3.org/2000/svg" version="1.1" viewBox="0 0 150 114.97">
  <defs>
    <style>
      .cls-1 {
        fill: #231f20;
      }

      .cls-1, .cls-2 {
        stroke-width: 0px;
      }

      .cls-2 {
        fill: #b0987c;
      }
    </style>
  </defs>
  <path class="cls-1" d="M-91.06,62.14c3.22,0,3.22-5,0-5s-3.22,5,0,5h0Z"/>
  <path class="cls-2" d="M86.89,107.41c21.02-.28,42.05-.46,63.07-.55.32,0,.32-.5,0-.5-21.03.09-42.05.27-63.07.55-.32,0-.32.5,0,.5h0Z"/>
  <path class="cls-2" d="M87.14,107.1c-.52-.88-1.48-1.33-2.23-1.99-.83-.73-1.51-1.62-2.12-2.54-.18-.27-.61-.02-.43.25.61.91,1.27,1.8,2.08,2.54.73.67,1.75,1.12,2.27,1.99.16.28.6.03.43-.25h0Z"/>
  <path class="cls-2" d="M37.99,108.17c-.22,3.78,5.05,3.42,7.47,3.5,4.45.15,8.91.26,13.36.31,9.08.11,18.15.01,27.22-.28.08,0,.18-.04.22-.12.57-1.12.83-2.26.8-3.52,0-.13-.11-.25-.25-.25-15.78.34-31.56.68-47.34,1.03-.32,0-.32.51,0,.5,15.78-.34,31.56-.68,47.34-1.03l-.25-.25c.02.65-.02,1.27-.18,1.9-.05.21-.12.43-.2.63-.24.53-.61.75-1.12.65-.91.21-2.02.06-2.97.09-2.14.06-4.29.1-6.43.14-4.21.07-8.42.09-12.62.07s-8.42-.09-12.62-.2c-2.14-.06-4.29-.12-6.43-.2-1.99-.07-5.66-.03-5.49-2.95.02-.32-.48-.32-.5,0h0Z"/>
  <path class="cls-2" d="M39.76,109.1c.42-2.34.17-3.94-1.78-5.42-1.25-.95-2.45-1.91-3.48-3.1-.29-.34-.84-.76-.88-1.21-.29-.35-.15-.6.44-.75.4-.61.83-.61,1.3-.02.48.43.74,1.08,1.13,1.59.68.89,3.37,2.74,4.23,1.06.37-.71-.26-1.62-.61-2.22-.68-1.15-1.57-2.14-2.59-2.99-.17-.14-.42-.05-.43.18-.03.83.28,1.42.94,1.9.09.07.23.03.3-.04,1.82-1.6,4.23-1.32,6.46-1.09s4.59.29,6.89.23,4.62-.24,6.93-.41c1.99-.15,3.99-.3,5.92-.83,1.08-.3,2.26-.9,3.41-.64.94.22,1.23,1.41.22,1.66-.61.15-1.3.06-1.88-.13-1.12-.36-1.55-1.16-2.33-1.95-.29-.3-.57-.4-.99-.44-2.15-.21-4.85.41-6.05-1.9-1.05-2.03-.97-4.5-.93-6.72,0-.32-.5-.32-.5,0-.05,3.05-.21,8.22,3.7,8.9.86.15,1.75.2,2.63.22.71.02,1.31-.13,1.89.42.24.23.39.58.62.82.92.96,2.32,1.47,3.64,1.31.94-.12,2.11-.85,1.4-1.9-.81-1.19-2.57-.86-3.71-.52-4.62,1.37-9.65,1.52-14.46,1.62-2.78.06-5.49-.27-8.25-.41-.98-.05-1.98-.01-2.93.27-.43.13-.86.31-1.25.54-.08.05-.37.31-.46.31-.48,0-.73-.83-.72-1.22l-.43.18c1.05.87,1.95,1.88,2.62,3.07.35.63.62.81.08,1.42-.49.55-.7.49-1.36.25-.8-.29-1.37-.89-1.84-1.57-.66-.96-2-2.84-3.34-1.6s1.12,3.33,1.9,4.08c.87.85,1.85,1.52,2.8,2.28,1.58,1.27,1.61,2.77,1.28,4.63-.06.31.42.45.48.13h0Z"/>
  <path class="cls-2" d="M.09,107.19c2.23.47,4.46.69,6.74.65.11,0,.21-.08.24-.18.73-2.92,1.31-5.86,1.76-8.83l-.46.06c1.69,3.7,5.51,5.86,9.55,5.44,1.05-.11,2.09-.36,3.08-.71,1.13-.39,2.16-1.06,3.3-1.42,1.01-.32,1.62.2,1.87,1.21.08.32-.03.53.1.86.27.67.82.88,1.51.91,1.24.06,2.32-.03,3.57.26,1.04.24,2.09.51,3.17.39,1.01-.12,2.96-.95,2.52-2.33-.13-.41-.48-.6-.88-.69-1.07-.23-2.37.06-3.47.03-1.51-.04-2.93-.29-4.3-.97-1.01-.5-1.93-1.17-2.98-1.58-2.5-.97-5.08.15-7.64-.03-1.62-.12-3.35-.74-4.25-2.19-.95-1.53-.54-3.69,1.27-4.34.22-.08.25-.42,0-.48-2.55-.63-5.19.19-6.91,2.19-.11.13-.09.3.05.39,1.47,1.02,3.47.99,4.91-.08.42-.31.64-.69.97-1.06.92-1.03,1.76-.46,2.76-.35,1.39.14,2.72-.38,3.98-.9,3.08-1.27,6.32-2.4,9.71-1.9s5.76,2.75,7.5,5.7c.16.28.6.03.43-.25-1.33-2.25-2.96-4.3-5.45-5.3-2.84-1.14-6-.87-8.87,0-1.6.48-3.09,1.22-4.67,1.76-.97.33-1.95.53-2.98.35-.5-.09-1.01-.32-1.53-.27-1.12.11-1.37,1.26-2.2,1.86-1.29.94-3.03.93-4.32.03l.05.39c1.6-1.86,4.04-2.65,6.43-2.06v-.48c-3.31,1.18-2.33,5.31.21,6.73,1.76.98,3.81.88,5.74.63,1.33-.17,2.72-.41,4.04-.04s2.32,1.15,3.48,1.73c1.92.97,4,1.08,6.11,1.03.35,0,1.32-.24,1.62-.05l.18.63c.35.49.24.83-.32,1.02-.22.13-.5.23-.75.29-1.32.35-2.65-.1-3.93-.38-1.01-.22-1.91-.16-2.92-.19-1.9-.05-1.05-1.8-1.83-2.69-.83-.94-2.34-.22-3.23.22-2.65,1.29-5.68,2.19-8.61,1.37-2.53-.71-4.57-2.56-5.66-4.93-.09-.19-.43-.15-.46.06-.36,2.42-.81,4.83-1.37,7.22-.12.52-.1,1.15-.63,1.44-.38.2-1.49-.03-1.92-.05-1.42-.09-2.82-.3-4.21-.59-.31-.07-.45.42-.13.48H.09Z"/>
  <path class="cls-2" d="M68.72,97.32c-.17,3.25,4.64,2.51,6.55,2.44s5.47.34,6.34-2.01c.07-.19-.14-.34-.31-.31-1.55.31-3.1.62-4.64.93-1.38.28-2.87.43-4.19.9-.7.25-1.36.7-1.47,1.49-.1.67.22,1.3.89,1.49v-.48c-.51.09-.94.25-1.38.51-.09.06-.14.18-.11.28.82,2.92,5.56,2.66,7.82,2.21,3.09-.62,6.02-2.79,6.75-5.98.32-1.37.15-2.84-.46-4.11-.31-.65-.75-1.25-1.28-1.74-.21-.19-.48-.33-.68-.52-.17-.16-.48-.41-.42-.72.05-.26.55-.67.76-.88,1.15-1.15,2.6-2.07,3.27-3.62.16-.37.5-1.22.23-1.61-.25-.35-.83-.28-1.16-.16-.86.3-1.55,1.15-2.19,1.76-.84.79-1.66,1.6-2.47,2.43-1.69,1.74-3.28,3.57-4.8,5.47-.14.17-.05.41.18.43,2.1.16,2.74-2.57,4.66-2.9l-.28-.37c-.3.67-.6,1.34-.9,2.01-.08.17.01.37.22.38,1.2.06,2.79-.79,3.31.78.31.96-.02,2.09-.33,3.01-.73,2.16-2.11,4.03-3.9,5.43-.25.2.1.55.35.35,2.21-1.72,3.9-4.26,4.4-7.04.16-.87.16-1.95-.44-2.66-.9-1.07-2.24-.31-3.39-.36l.22.38c.3-.67.6-1.34.9-2.01.09-.21-.06-.41-.28-.37-1.85.33-2.62,3.03-4.52,2.89l.18.43c2.09-2.62,4.34-5.11,6.76-7.43.58-.56,1.16-1.14,1.78-1.65.16-.13.39-.35.58-.41l.35.04c.34-.08.44.02.31.29.01.46-.31.96-.55,1.33-.85,1.31-2.23,2.11-3.24,3.28-.67.78-.84,1.29.07,1.87,1.27.81,2.09,2.12,2.36,3.6.56,3.1-1.61,5.97-4.33,7.21-1.76.81-3.76,1.01-5.67.84-.87-.08-1.78-.23-2.55-.67-.32-.18-.88-.55-.95-.94-.05-.29-.12-.09-.02-.27s.81-.28,1.02-.32c.25-.04.22-.42,0-.48-.8-.23-.58-1.2-.16-1.6.38-.36.94-.48,1.43-.6.86-.2,1.74-.35,2.6-.52,1.85-.37,3.69-.74,5.54-1.11l-.31-.31c-.71,1.94-3.87,1.58-5.48,1.63-1.7.06-6.58.92-6.42-1.93.02-.32-.48-.32-.5,0h0Z"/>
  <path class="cls-2" d="M69.42,98.81c-.75,1.38-1.4,2.81-1.94,4.28-.08.21.19.38.37.28,1.21-.68,2.34-1.51,3.35-2.46.24-.22-.12-.57-.35-.35-.98.92-2.08,1.72-3.25,2.38l.37.28c.53-1.43,1.16-2.82,1.89-4.17.15-.28-.28-.54-.43-.25h0Z"/>
  <path class="cls-2" d="M77.58,93.36c1.17-3.4-2.47-5.6-4.09-8.01-.21-.31-.59-.82-.63-1.2l-.06-.18c.15-.07.27-.03.35.1.13.09.26.26.37.37.54.58.98,1.25,1.33,1.96.7,1.44.97,3.04.8,4.63l.25-.25c-1.67.1-3.76.9-3.63,2.92s2.42,1.89,3.84,1.55c.31-.08.18-.56-.13-.48-1.13.27-3.21.51-3.21-1.22s1.8-2.19,3.14-2.27c.15,0,.23-.11.25-.25.19-1.73-.14-3.49-.94-5.04-.26-.51-2.07-3.55-2.85-2.48-.38.52.38,1.59.65,2.01.5.77,1.13,1.44,1.76,2.1,1.41,1.49,3.09,3.39,2.33,5.6-.1.3.38.44.48.13h0Z"/>
  <path class="cls-2" d="M55.38,85.6c-1.51,2.59-2.33,5.43-2.45,8.43,0,.24.36.35.47.13,1.83-3.91-1.15-7.87-2.05-11.61-.55-2.3-.75-4.68-.57-7.04.19-2.56.93-5.01,1.48-7.5,2.01-9.09-1.91-17.97-.98-27.08.03-.32-.47-.32-.5,0-.93,9.06,3,17.91,1,26.95-.94,4.24-1.95,8.19-1.33,12.58.3,2.12.92,4.11,1.71,6.09.95,2.35,1.97,4.9.81,7.37l.47.13c.12-2.91.92-5.66,2.38-8.17.16-.28-.27-.53-.43-.25h0Z"/>
  <path class="cls-2" d="M50.95,41.59l2.36-7.18c.1-.31-.38-.43-.48-.13-1.07,3.04-2.26,6.36-4.82,8.48-3.02,2.49-7.41,2.3-10.66.38-3.06-1.8-5.26-4.96-6.48-8.25-.67-1.81-1.06-3.87-.41-5.74s2.18-3.24,4.12-3.32c.32-.01.32-.51,0-.5-2.57.11-4.47,2.29-4.86,4.74-.52,3.29,1.16,6.82,3.04,9.43,3.41,4.75,10.33,7.83,15.47,3.73,2.72-2.17,3.97-5.63,5.08-8.8l-.48-.13-2.36,7.18c-.1.31.38.44.48.13h0Z"/>
  <path class="cls-2" d="M34.46,25.91c3.01,0,6.37-.39,8.68-2.54s2.75-5.44,1.48-8.18c-.12-.26-.53-.07-.46.19.48,1.77,1.34,3.74,3.12,4.54,1.03.46,2.1.28,3.19.34,2.04.12,2.74,1.66,2.85,3.48.19,3.07-.68,6.13-1.68,8.99-.95,2.69-1.88,5.58-3.46,7.98s-3.62,4.09-4.75,6.64c-1.03,2.32-1.48,4.89-1.81,7.39-.76,5.82-.44,11.97,1.26,17.6.79,2.61,2.03,5.15,4.09,6.99.87.77,1.86,1.41,2.95,1.83,1.42.55,4.33.39,4.48,2.45.02.32.52.32.5,0-.27-4.01,1.35-7.72,2.15-11.58s.07-7.44-.76-11.24c-.94-4.32-.9-8.57-.63-12.96s.31-8.46.01-12.72c-.33-4.8-.78-9.6-.28-14.41.03-.32-.47-.32-.5,0-.44,4.24-.15,8.48.16,12.72s.46,8.47.21,12.73-.58,8.17.06,12.22c.68,4.34,2.17,8.44,1.38,12.89-.74,4.14-2.58,8.07-2.29,12.35h.5c-.16-2.32-2.82-2.24-4.49-2.8-2.66-.89-4.65-3.12-5.87-5.58-1.33-2.68-1.96-5.72-2.37-8.66-.46-3.29-.54-6.63-.25-9.93.26-3.02.72-6.24,1.95-9.03,1.15-2.62,3.35-4.45,4.86-6.82s2.33-4.96,3.24-7.49,1.72-5.26,1.85-8.03c.1-2.04-.09-4.83-2.49-5.41-1.5-.36-3.03.23-4.4-.71-1.28-.88-1.9-2.46-2.29-3.9l-.46.19c1.34,2.88.47,6.38-2.18,8.19-2.19,1.5-4.97,1.76-7.55,1.77-.32,0-.32.5,0,.5h0Z"/>
  <path class="cls-2" d="M55.62,20.99c-.78-3.59-2.1-7.05-3.96-10.22-1.67-2.86-3.76-5.8-6.48-7.75-1.27-.92-2.74-1.57-4.31-1.74s-2.96.27-4.4,1c-1.55.79-3.27,1.12-4.79,2.02-1.3.76-2.47,1.74-3.49,2.84-4.8,5.21-5.96,12.39-6.14,19.22-.11,4.19-.05,8.38-.21,12.57-.08,2-.1,4.02.26,6s1.03,3.74,1.72,5.55c3.23,8.46,6.16,18.37,1.05,26.74l.46.06c-1.94-7.17-.41-14.56.38-21.78.38-3.53.61-7.12.14-10.66-.22-1.63-.56-3.27-1.14-4.81-.32-.85-.82-1.88-1.81-2.06-.56-.1-1.05.13-1.55.36-.93.42-1.83.91-2.73,1.38-1.81.94-3.6,1.93-5.36,2.95s-3.5,2.07-5.2,3.17c-1.24.81-2.37,1.7-2.96,3.09-.67,1.59-.78,3.44-1.01,5.14-.26,1.9-.47,3.81-.53,5.73-.11,3.9.74,7.4,2.21,10.98.78,1.9,1.61,3.78,2.14,5.77.62,2.36.55,4.65.14,7.03-.6,3.53-1.49,7.43.74,10.6l.22-.38c-1.55.1-1.36-1.86-.61-2.57.59-.55,1.4-.83,2.16-1.05,1.57-.47,3.22-.67,4.86-.61.84.03,1.69.13,2.51.31.35.07.7.16,1.05.26.66.19.82.08.84.9s-.09.71-.74,1.03c-.43.21-.86.4-1.3.58-.73.28-1.47.5-2.24.69-.31.08-.18.56.13.48,1.4-.34,2.77-.83,4.04-1.51.54-.29,1.41-.75,1.24-1.51-.19-.87-1.58-1.08-2.25-1.25-1.35-.35-2.75-.51-4.15-.48-2.09.04-5.32.33-6.76,2.09-.92,1.12-.48,3.25,1.22,3.15.17-.01.33-.21.22-.38-2.2-3.13-1.22-6.97-.65-10.45.52-3.17.27-6.06-.81-9.08-1.14-3.18-2.75-6.19-3.36-9.54-.71-3.92-.22-7.94.33-11.84.22-1.52.34-3.22,1.15-4.56.99-1.63,3.01-2.59,4.59-3.57,3.14-1.93,6.36-3.74,9.65-5.41.98-.5,2.44-1.58,3.4-.6.61.62.84,1.63,1.08,2.44.49,1.67.78,3.39.91,5.12.24,3.15,0,6.32-.36,9.46-.8,7.13-2.23,14.42-.32,21.5.06.21.35.24.46.06,3.68-6.03,3.32-13.35,1.48-19.92-1.03-3.68-2.68-7.14-3.73-10.8-1.14-3.97-.62-8.03-.56-12.1.12-7.49-.52-15.43,2.85-22.38,1.4-2.87,3.42-5.53,6.14-7.26,1.39-.89,2.89-1.28,4.4-1.89.8-.32,1.5-.84,2.33-1.11,1.09-.35,2.27-.35,3.38-.1,4.02.87,6.9,4.77,8.98,8.05s3.7,7.22,4.57,11.18c.07.31.55.18.48-.13h0Z"/>
  <path class="cls-2" d="M20.87,91.09c1.54-2.7-.09-5.54-1.76-7.73-1.13-1.49-2.21-2.91-2.83-4.7s-.85-3.8-.94-5.74c-.08-1.81,0-3.63-.15-5.43-.13-1.55-.59-2.96-1.2-4.38-.36-.85-.75-1.7-1.04-2.58-.14-.44-.25-.87-.32-1.33-.02-.11-.14-.63-.08-.77l1.32-.88.52.22c2.34,1.44.03,4.49-.75,6.16-1.32,2.84.07,5.57,2.03,7.72,1.22,1.33,2.62,2.52,3.64,4.02,1.11,1.65,1.48,3.59,1.63,5.54.21,2.74-.1,6.04,1.7,8.35,1.93,2.47,5.74,1.66,8.45,1.44.47-.04,1.26.03,1.65-.32.43-.39.41-1.26.45-1.78.11-1.66-.22-3.39-1.16-4.79-1.77-2.62-5.44-3.46-6.69-6.48-.12-.29-.61-.16-.48.13,1.01,2.44,3.43,3.49,5.34,5.1,1.42,1.2,2.29,2.74,2.48,4.6.04.41.05.82.03,1.23-.04.98.05,1.42-1.16,1.76-.94.27-2.19.18-3.17.22-2.02.1-4.21.22-5.49-1.64-.89-1.29-1.14-2.93-1.25-4.45-.24-3.21-.08-6.57-2-9.34s-5.8-4.94-6.05-8.71c-.18-2.78,3.68-5.73,1.85-8.46-.46-.68-1.32-1.2-2.16-1.07-1.21.18-1.29,1.19-1.14,2.21.2,1.39.8,2.67,1.35,3.94.8,1.86,1.23,3.62,1.28,5.66.1,3.69-.09,7.53,1.45,10.99s6.56,6.95,4.24,11.01c-.16.28.27.53.43.25h0Z"/>
  <path class="cls-2" d="M44.93,15.99c-.03-1.87-1.36-3.18-2.53-4.47-1.38-1.52-2.25-3.32-2.84-5.27-.12-.39-.39-.95-.37-1.36.03-.78.94-.03,1.18.21.65.66,1.1,1.57,1.51,2.39.9,1.8,1.47,3.75,1.75,5.74.04.32.53.18.48-.13-.24-1.73-.7-3.42-1.4-5.02-.36-.82-.77-1.62-1.25-2.37-.36-.56-.78-1.14-1.38-1.47-.37-.2-1.07-.43-1.35.03-.3.49.15,1.43.3,1.92.48,1.62,1.13,3.22,2.13,4.59,1.19,1.63,3.26,3,3.29,5.21,0,.32.5.32.5,0h0Z"/>
  <path class="cls-2" d="M22.54,33.53c.93-4.07,2.06-8.25,3.84-12.05.85-1.81,1.98-3.41,3.72-4.47,1.51-.91,3.08-1.61,4.44-2.75.88-.74,5.13-4.68,2.66-5.63-1.14-.44-2.09.65-2.82,1.35-1.32,1.25-2.82,2.45-3.94,3.88s-1.29,2.97-1.47,4.66c-.22,2.08-.41,4.16-.52,6.25-.23,4.24-.17,8.51.39,12.73s1.79,7.94,2.42,11.97c.35,2.25.48,4.56.05,6.81-.38,2.02-1.24,3.91-1.72,5.9-1.04,4.32-.86,8.82-.34,13.21.24,2.01.42,4.1.89,6.08.26,1.11.82,2.28,2.09,2.32.11,0,.21-.08.24-.18,1.3-3.9.05-7.9-.96-11.72-1.18-4.47-2.16-8.99-2.97-13.55l-.48.13c1.05,2.8,3.95,3.85,6.74,4s6.38.23,8.49-1.9l-.43-.18c.69,6.12,3.15,11.86,7.12,16.57.21.25.56-.11.35-.35-3.87-4.6-6.3-10.24-6.97-16.21-.02-.2-.26-.34-.43-.18-1.85,1.87-4.81,1.81-7.27,1.78-2.78-.03-6.03-.75-7.12-3.66-.11-.3-.54-.19-.48.13.8,4.47,1.76,8.92,2.91,13.31.57,2.17,1.23,4.33,1.48,6.57.11,1.01.14,2.02.02,3.02-.04.31-.08,1.51-.34,1.67s-.71-.12-.87-.26c-.25-.23-.42-.71-.51-1-.65-1.99-.75-4.34-1-6.4s-.42-4.18-.42-6.28c0-2.28.21-4.57.74-6.79.5-2.07,1.39-4.03,1.76-6.13.72-4.09-.28-8.22-1.22-12.19-1.06-4.52-1.72-9.03-1.79-13.67s.04-9.14.86-13.51c.45-2.39,2.22-3.81,3.9-5.39.65-.62,1.52-1.79,2.36-2.16l.49-.1c.49-.27.71-.11.64.51.21.84.15.42-.06.95s-.77,1.13-1.14,1.58c-1.48,1.76-3.31,2.89-5.31,3.97-1.77.96-3.09,2.23-4.08,3.99-2.24,4-3.43,8.81-4.44,13.24-.07.31.41.45.48.13h0Z"/>
  <path class="cls-2" d="M22.1,44.27c.23,2.91-1.02,5.71-1.25,8.59-.24,3.05-.04,6.17.15,9.22.39,6.18,2.17,12.17,3.63,18.17.05.23.45.25.48,0,.1-.7.2-1.4.3-2.09.04-.31-.44-.45-.48-.13-.1.7-.2,1.4-.3,2.09h.48c-1.48-6.11-3.28-12.21-3.64-18.52-.16-2.89-.35-5.85-.13-8.74s1.48-5.67,1.25-8.59c-.02-.32-.53-.32-.5,0h0Z"/>
  <path class="cls-2" d="M50.27,76.86c2.76,1.7,4.7,4.33,5.53,7.46.07.25.4.22.48,0,4.72-13.05,3.41-27.1,1.6-40.57-.22-1.64-.45-3.28-.67-4.92-.15-1.09-.64-2.88.83-3.26,1.04-.27,2.18.47,2.98,1.04,2.62,1.84,4.14,4.87,4.78,7.94.72,3.46.16,6.83.27,10.31.04,1.35.31,2.61.84,3.86.64,1.51,1.55,2.93,1.91,4.56.73,3.31-.84,6.73.39,10,1.06,2.82,3.79,5.12,3.51,8.34h.5c-.23-3.43-4.06-4.41-6.87-3.69-1.46.38-4.06,1.11-4.82,2.54s-.13,3.7.35,5.1c.33.96,1.07,2.53,2.34,1.71.53-.35.71-.98.84-1.56.25-1.12.61-2.09,1.41-2.94.71-.76,1.63-1.32,2.63-1.61.52-.15,1.07-.22,1.62-.2.6.02.57-.06.62.56s-.24.74-.74.98c-1.84.9-3.97,1.17-5.84,2.06-1.54.73-2.49,1.98-2.28,3.74.25,2.14,1.98,3.57,3.57,4.82.25.2.61-.16.35-.35-1.36-1.07-2.96-2.28-3.35-4.07-.58-2.62,1.57-3.62,3.63-4.39.88-.33,6.4-1.31,5.55-3.28-.34-.79-1.94-.61-2.57-.51-1.24.19-2.4.79-3.31,1.64s-1.47,1.97-1.74,3.22c-.03.15-.04.39-.12.53l-.05.17-1.74.19c-.27-.18-.45-1.16-.55-1.49-.28-.97-.48-2.04-.42-3.06.13-2.3,4.02-3.37,5.96-3.56,2.21-.23,4.86.92,5.02,3.42.02.32.47.32.5,0,.24-2.79-1.69-4.92-2.94-7.22-.9-1.67-1.16-3.34-1.05-5.22.1-1.7.41-3.41.22-5.12-.16-1.45-.75-2.73-1.37-4.02-.9-1.86-1.5-3.52-1.51-5.62,0-3.52.44-6.95-.38-10.42-.65-2.78-2.04-5.47-4.27-7.31-1.21-.99-4.57-2.94-5.39-.38-.17.54-.02,1.16.06,1.7.13.98.27,1.95.4,2.93.29,2.1.57,4.19.84,6.29.49,3.91.9,7.84,1.1,11.78.42,8.51-.22,17.14-3.13,25.2h.48c-.86-3.25-2.89-5.99-5.76-7.76-.27-.17-.53.26-.25.43h0Z"/>
  <path class="cls-2" d="M65.92,93.09c.64.74,1.33,1.43,2.07,2.07.1.09.25.1.35,0,.09-.09.1-.27,0-.35-.74-.64-1.44-1.33-2.07-2.07-.09-.1-.26-.09-.35,0-.1.1-.09.25,0,.35h0Z"/>
</svg>