<?xml version="1.0" encoding="UTF-8"?>
<svg id="Layer_1" data-name="Layer 1" xmlns="http://www.w3.org/2000/svg" version="1.1" viewBox="0 0 300 300">
  <defs>
    <style>
      .cls-1 {
        fill: #38261c;
        stroke-width: 0px;
      }
    </style>
  </defs>
  <path class="cls-1" d="M214.93,114.6c.54-1.47,1.07-3.8-.8-4.6-.31-.13-.67-.13-.89-.48-.2-.32-.17-.82.1-1.09.4-.4,1.1-.29,1.61-.33.63-.04,1.29-.19,1.63-.78.89-1.56-.98-2.84-1.92-3.72-1.7-1.6-.28-3.85-1.4-5.66-.17-.27-.6-.02-.43.25.99,1.59-.19,3.64.97,5.2.57.77,1.49,1.19,2.05,1.97.25.35.46.83.42,1.27-.08.85-.86.94-1.53.97-1.09.05-2.58.48-2.03,1.93.31.82,1.1.66,1.67,1.19,1.05.98.49,2.59.07,3.73-.11.3.37.43.48.13h0Z"/>
  <path class="cls-1" d="M212.41,103.16c.24-1.12-.14-2.05-.54-3.08-.23-.6-.5-1.24-.49-1.9.02-1.05.79-1.7,1.48-2.36,1.94-1.87,1.54-3.87,1.56-6.36,0-1.8.7-2.69,1.85-3.96.68-.75,1.03-1.45.99-2.46-.01-.27-.15-.72-.07-.99.16-.49.78-.87,1.13-1.13.3-.22.53-.3.76-.63.56-.81.45-1.91.39-2.83-.04-.6-.07-1.22.13-1.8.41-1.19,1.42-.97,2.36-.85.83.11,1.44,0,1.75-.84.54-1.46,1.13-3.32,3.1-3.25,1.4.05,2.39,1.33,3.86,1.03,1.17-.24,2.19-1.21,3.14-1.88,1.4-.99,2.88-2,4.6-2.32s3.26.07,4.44,1.33c.88.93,1.51,1.79,2.8,2.18,3.18.95,6.46-.76,9.31,1.6,1.25,1.04,1.9,2.45,2.9,3.69.77.95,1.82,1.57,3.05,1.16.3-.1.17-.58-.13-.48-2.1.69-3.06-1.97-4.09-3.28-.81-1.03-1.8-1.95-3.01-2.48-2.59-1.13-5.45.16-8.05-.74-1.48-.51-2.06-1.96-3.29-2.8-.94-.65-2.12-.85-3.24-.77-3.06.22-5.03,2.51-7.57,3.89-1.84.99-2.69-.34-4.36-.59-1.1-.16-2.14.37-2.85,1.2-.32.37-.58.8-.76,1.25-.09.21-.12.53-.23.73-.66,1.26-.96.9-1.86.79-.73-.09-1.4-.09-1.92.5-.64.73-.64,1.83-.58,2.74.04.68.15,1.43-.09,2.1-.34.95-1.05.77-1.69,1.29-.78.64-.39,1.66-.42,2.52-.06,1.57-1.72,2.33-2.38,3.63-.55,1.09-.49,2.36-.44,3.55.09,1.97.04,3.49-1.45,4.93-.9.87-1.73,1.69-1.6,3.04.15,1.57,1.38,2.89,1.03,4.52-.07.31.42.45.48.13h0Z"/>
  <path class="cls-1" d="M247.28,74.17c1.93-.55,4.62-1.24,6.24.36,1.39,1.38,1.23,3.65,2.74,4.98,1.24,1.09,2.94,1.32,4.45,1.85,1.03.36,2.14.89,2.73,1.86.71,1.18.32,2.58.24,3.86-.12,1.87.74,3.07,1.77,4.55.63.91,1.14,1.81,1.01,2.96-.11.95-.6,1.89-.42,2.86.12.66.54,1.13,1.02,1.57.75.69,1.41,1.35,1.85,2.29.85,1.84.79,4.13-.24,5.89s-3.03,2.61-3.41,4.69c-.2,1.09.05,2.2.02,3.3-.05,1.64-.9,2.95-2.47,3.49-.3.1-.17.59.13.48,1.61-.56,2.66-1.87,2.81-3.57.11-1.2-.21-2.41,0-3.6.27-1.45,1.37-2.27,2.34-3.27,2.44-2.52,2.55-6.81.08-9.37-.32-.33-.7-.59-1.02-.92-.81-.84-.67-1.72-.42-2.73s.38-1.85,0-2.82c-.84-2.12-2.72-3.29-2.56-5.8.12-1.9.5-3.71-1.15-5.07s-4.05-1.35-5.88-2.48c-2.23-1.38-1.72-4.59-3.98-5.91-1.8-1.05-4.15-.48-6.02.06-.31.09-.18.57.13.48h0Z"/>
  <path class="cls-1" d="M261.39,111.37c.17.73.31,1.47.42,2.22.05.33.16.79-.03,1.1-.18.29-.59.42-.88.58-.55.3-1.06.65-1.53,1.05-.38.32-.88.7-1.06,1.18-.34.91.6,2.11,1.2,2.72.77.78,1.77,1.3,2.85,1.49.31.06.45-.43.13-.48-1.07-.19-2.04-.72-2.78-1.53-.37-.41-.69-.9-.88-1.42-.27-.76.49-1.29,1.02-1.71.47-.38.99-.7,1.53-.98.38-.2.77-.4.92-.83.17-.47.03-1.01-.04-1.49-.11-.68-.24-1.35-.39-2.02-.07-.31-.55-.18-.48.13h0Z"/>
  <path class="cls-1" d="M258.07,122.11c-.85.1-1.74.08-2.45-.45-.54-.4-.9-.99-1.22-1.57-.58-1.02-1.14-2.15-2.23-2.72s-2.29-.18-3.26.46c-1.16.76-2.87,2.4-4.27,1.17-.24-.21-.6.14-.35.35,2.71,2.39,5.08-3.08,7.81-1.45,1.26.75,1.65,2.32,2.5,3.42s2.1,1.45,3.49,1.29c.32-.04.32-.54,0-.5h0Z"/>
  <path class="cls-1" d="M215.78,109.71c1.1,1,1.41,2.5,1.37,3.94-.02.75-.12,1.51.01,2.26.11.66.43,1.23.86,1.73.88,1.01,2.07,2.13,3.5,1.98s3.03-1.02,4.27-1.82c.27-.17.02-.61-.25-.43-.64.42-1.31.79-2.01,1.1s-1.43.63-2.18.67c-.89.06-1.51-.46-2.14-1.02-.51-.45-1.03-.93-1.34-1.55-.62-1.26-.12-2.79-.29-4.14-.15-1.16-.59-2.27-1.46-3.07-.24-.22-.59.14-.35.35h0Z"/>
  <path class="cls-1" d="M223.79,116.8c1.95-.26,3.66-.24,4.93,1.47.67.9,1.27,1.7,2.31,2.21,2.68,1.31,5.65.34,8.45.15.87-.06,1.61-.03,2.37.45.48.3.91.64,1.44.86,1.01.41,2.14.51,3.21.26,2.24-.52,3.73-2.49,3.96-4.72.03-.32-.47-.32-.5,0-.35,3.34-3.95,5.44-6.97,3.76-.87-.48-1.44-1.08-2.48-1.14-1.45-.09-2.94.27-4.38.44-1.34.15-2.72.22-4.03-.18-1.53-.47-2.24-1.48-3.18-2.66-1.35-1.71-3.27-1.65-5.27-1.38-.32.04-.18.52.13.48h0Z"/>
  <path class="cls-1" d="M209.73,119.79c2.15-1.7,5-2.42,7.69-1.95.31.06.45-.43.13-.48-2.89-.51-5.88.25-8.18,2.08-.25.2.1.55.35.35h0Z"/>
  <path class="cls-1" d="M261.96,122.17c2.12,3.95.87,8.49-.61,12.43-1.62,4.34-3.42,8.62-5.14,12.92-.85,2.12-1.69,4.24-2.54,6.37-.46,1.15-.81,2.5-1.43,3.57-.76,1.31-2.56,1.29-3.95,1.47-4.64.58-9.34.26-13.87-.89-.12-.03-.29.04-.31.17-.53,3.58-1.66,6.99-3.37,10.18-.09.17.02.37.22.38,6.81.32,14,.03,20.64-1.63,2.63-.66,3.78-2.31,4.16-4.95.41-2.86-.12-5.74-1.39-8.32-.14-.29-.57-.04-.43.25,1.28,2.59,1.77,5.53,1.27,8.38-.26,1.49-.8,2.88-2.21,3.62-1.23.65-2.75.8-4.1,1.04-5.92,1.03-11.93,1.38-17.93,1.1l.22.38c1.74-3.22,2.89-6.68,3.42-10.3l-.31.17c3.81.96,7.75,1.36,11.67,1.12,1.76-.11,3.84-.2,5.53-.76,1.36-.46,1.65-2.31,2.13-3.49,1.54-3.87,3.09-7.73,4.63-11.6s3.16-7.42,4.35-11.24c1.09-3.49,1.6-7.28-.2-10.62-.15-.28-.58-.03-.43.25h0Z"/>
  <path class="cls-1" d="M253.62,165.97c-2.24,5.39,3.37,9.62,5.57,13.88,2.71,5.25,2.55,11.44,2.39,17.19l.43-.18c-1.4-1.53-2.79-3.07-4.19-4.6-1.21-1.33-2.37-2.78-3.72-3.98-.91-.8-2-1.51-3.25-1.5s-2.23.8-3.3,1.32c-2.01.99-3.43-.17-4.27-1.99-.43-.93-.7-1.88-1.92-1.58-1.7.41-3.42,1.43-5.04,2.12l-5.95,2.53c-.08.03-.13.14-.12.22.04,1.23.2,2.43-.17,3.62s-1.15,2.3-2.02,3.23c-1.65,1.76-3.73,3.13-5.73,4.45-3.94,2.59-8.93,5.95-13.88,5.2-2.82-.43-5.03-2.3-4.9-5.3.11-2.43,1.5-4.51,2.45-6.67s1.24-4.16.98-6.4c-.13-1.09-.36-2.16-.66-3.21-.23-.79-.45-1.47-.08-2.3.26-.57.82-1.09,1.16-1.62,2.63-4.05,3.74-8.96,3.23-13.75-.03-.32-.53-.32-.5,0,.42,3.96-.26,7.98-2.05,11.55-.4.79-.84,1.55-1.34,2.29-.42.61-1.1,1.23-1.27,1.98-.15.66.18,1.37.36,1.99.35,1.23.62,2.49.71,3.76.16,2.32-.42,4.35-1.43,6.43-.75,1.54-1.59,3.07-1.92,4.77-.59,3.06.76,5.62,3.73,6.64,3.44,1.18,7.17-.14,10.25-1.71,3.43-1.76,6.84-3.91,9.8-6.39,1.24-1.04,2.41-2.24,3.14-3.7.32-.63.54-1.3.64-2,.11-.77-.3-2.32.32-2.82.72-.59,2.13-.9,2.98-1.26l3.21-1.36c.99-.42,1.98-.85,2.98-1.26.87-.36,1.69-.89,2.33.19.17.29.27.65.43.96.59,1.16,1.54,2.32,2.95,2.37,1.83.07,3.1-1.72,4.91-1.75,2.3-.04,4.07,2.52,5.45,4.04,1.79,1.96,3.58,3.93,5.36,5.89.15.17.42.03.43-.18.15-5.3.28-10.87-1.74-15.87-1-2.48-2.64-4.48-4.2-6.62-1.77-2.43-3.28-5.44-2.03-8.44.12-.3-.36-.43-.48-.13h0Z"/>
  <path class="cls-1" d="M204.07,203.94c0,6.45-.46,12.88-1.4,19.26-.05.31.44.45.48.13.95-6.42,1.43-12.9,1.42-19.39,0-.32-.5-.32-.5,0h0Z"/>
  <path class="cls-1" d="M241.6,184.8c-.57,2.16-1.17,4.4-.92,6.66.22,2.04,1.28,3.9,1.42,5.95s-.58,4.15-.02,6.28c.59,2.23,1.56,4.19,1.79,6.53.77,7.78-.94,19.01-9.8,21.41-.31.08-.18.57.13.48,8.31-2.25,10.28-11.74,10.29-19.19,0-2.2-.2-4.4-.91-6.49-.37-1.1-.88-2.16-1.12-3.3-.26-1.24-.1-2.46.04-3.7.26-2.3-.36-4.11-.97-6.3-.77-2.79-.17-5.47.56-8.2.08-.31-.4-.44-.48-.13h0Z"/>
  <path class="cls-1" d="M240.41,229.5c5.97,1.12,12.84,2.35,18.05-1.66.25-.19,0-.63-.25-.43-5.1,3.93-11.82,2.71-17.66,1.61-.31-.06-.45.42-.13.48h0Z"/>
  <path class="cls-1" d="M242.62,198.42c4.51-.95,8.77-2.9,12.44-5.69.25-.19,0-.63-.25-.43-3.64,2.77-7.85,4.7-12.32,5.64-.31.07-.18.55.13.48h0Z"/>
  <path class="cls-1" d="M242.54,198.02c-4.16-1.28-8.31-2.56-12.47-3.84-.31-.09-.44.39-.13.48l12.47,3.84c.31.09.44-.39.13-.48h0Z"/>
  <path class="cls-1" d="M261.47,196.94c.67,2.07,1.06,4.23,1.14,6.4.01.32.51.32.5,0-.08-2.22-.47-4.42-1.16-6.54-.1-.3-.58-.17-.48.13h0Z"/>
  <path class="cls-1" d="M208.24,206.39l.03,12.81c0,.52-.18,1.41.08,1.87.29.53,1.34,1.11,1.84,1.46,1.43,1,3,1.81,4.64,2.41,3.65,1.31,7.16,1.27,10.83.08,1.21-.39,2.68-.59,3.19-1.88.8-2.02,1.38-4.16,2.07-6.22,1.55-4.66,3.09-9.33,4.64-13.99.05-.15-.08-.32-.24-.32-4.87.07-9.73-.26-14.55-1.01-.31-.05-.45.43-.13.48,4.86.76,9.76,1.1,14.68,1.03l-.24-.32c-1.49,4.51-2.99,9.01-4.48,13.52-.36,1.09-.72,2.18-1.08,3.26-.43,1.3-.74,3.49-1.99,4.25-.86.53-2.15.76-3.11,1.04-1.17.33-2.38.58-3.6.62-2.12.07-4.26-.43-6.23-1.19-1.08-.41-2.11-.93-3.1-1.53-.87-.53-2.48-1.3-2.7-2.36s0-2.33,0-3.38v-3.38c-.01-2.42-.02-4.83-.02-7.25,0-.32-.5-.32-.5,0h0Z"/>
  <path class="cls-1" d="M249.98,200.48l4.61-.79,2.3-.4c.99-.17,1.3.14,1.84.97,1.49,2.25,1.8,5.31,2.03,7.93.24,2.79.17,5.65-.58,8.36-.34,1.23-.79,2.77-1.62,3.77-.6.73-1.68.55-2.53.58s-1.74.07-2.61.1l.24.32c2.33-7.09.97-15.08-3.57-21-.19-.25-.63,0-.43.25,4.47,5.82,5.81,13.64,3.52,20.62-.05.15.08.32.24.32,1.02-.04,2.03-.08,3.05-.12.61-.02,1.51.12,2.06-.23.44-.28.69-.94.92-1.38.35-.66.64-1.35.89-2.06,1.07-3.04,1.21-6.35.93-9.53-.25-2.82-.58-6.09-2.28-8.46-.24-.34-.63-.97-1.04-1.1-.51-.17-1.72.27-2.23.36l-5.87,1.01c-.32.05-.18.54.13.48h0Z"/>
  <path class="cls-1" d="M153.66,104.54c-.23-1.91,1.29-3.21,2.52-4.43,1.04-1.03,1.92-2.1,2.47-3.47,1.23-3.05.88-6.46.38-9.63-.68-4.34-1.42-8.65.87-12.66,1.03-1.81,2.38-3.42,3.7-5.02s2.56-3.04,4-4.4c3.49-3.29,8.13-5.76,13.05-4.78.31.06.45-.42.13-.48-8.48-1.69-14.84,5.7-19.45,11.7-1.16,1.51-2.25,3.12-2.88,4.94-.7,2.01-.75,4.16-.56,6.26.38,4.1,1.7,8.24.77,12.37-.53,2.32-1.86,3.82-3.47,5.46-1.14,1.15-2.23,2.43-2.03,4.15.04.32.54.32.5,0h0Z"/>
  <path class="cls-1" d="M183.08,61.44c4.03-.6,6.58,3.68,8.05,6.78,1.83,3.85,3.21,7.91,4.13,12.07s1.3,8.22,1.35,12.39c.02,1.77.06,3.6.63,5.29.52,1.53,1.48,2.83,2.61,3.96,1.24,1.24,2.65,2.3,3.91,3.53,1.36,1.33,2.52,2.86,3.47,4.51,1.87,3.24,2.97,6.88,3.7,10.53.85,4.25,1.21,8.57,1.88,12.84.6,3.83,1.35,7.86,3.29,11.27s5.28,6.19,8.46,8.61c.57.44,1.17.86,1.87,1.05.92.25,1.84.02,2.76-.07,2.51-.25,4.75,1.8,4.33,4.41-.05.31.43.45.48.13.42-2.65-1.69-5.21-4.43-5.09-1.07.05-2.13.42-3.19.08s-1.9-1.2-2.73-1.86c-1.55-1.24-3.09-2.52-4.46-3.97-6.29-6.67-5.98-16.83-7.38-25.33-.63-3.8-1.56-7.59-3.22-11.08s-3.97-5.98-6.81-8.45c-1.47-1.28-2.97-2.65-3.78-4.47-.95-2.1-.87-4.48-.9-6.73-.06-4.15-.57-8.29-1.51-12.34-1.05-4.51-2.6-9.09-4.85-13.15-1.58-2.86-4.19-5.93-7.8-5.39-.32.05-.18.53.13.48h0Z"/>
  <path class="cls-1" d="M233.67,158.11c-.04,1.28-.34,2.54-.61,3.78s-.56,2.43-1.02,3.59c-.84,2.12-2.31,4.11-4.55,4.85-.3.1-.17.58.13.48,2.23-.74,3.79-2.61,4.7-4.72.53-1.24.87-2.54,1.16-3.85s.63-2.74.67-4.14c0-.32-.49-.32-.5,0h0Z"/>
  <path class="cls-1" d="M227.52,170.42c-1.76,1.15-3.94.98-5.95.95s-4.14.06-6.06-.66c-1.71-.64-3.18-1.83-4.35-3.21-.56-.66-1.05-1.37-1.48-2.12-.33-.57-.48-1.08-1.1-1.36-.77-.35-1.64-.37-2.43-.77-.97-.49-1.92-1.19-2.21-2.28-.34-1.28.57-2.68-.26-3.76-.92-1.22-2.35-2.15-3.57-3.04-1.62-1.2-3.24-2.38-4.46-4.01-.19-.25-.62,0-.43.25,1.03,1.38,2.33,2.47,3.7,3.5.91.68,1.85,1.34,2.73,2.07.69.57,1.8,1.31,1.87,2.27.06.8-.26,1.59-.15,2.41.1.69.37,1.3.84,1.81.51.56,1.19.98,1.86,1.3.95.46,2.26.48,2.9,1.37,1.03,1.43,1.8,2.87,3.15,4.06,1.24,1.09,2.71,1.94,4.33,2.31,2.03.47,4.25.36,6.32.37,1.74,0,3.5-.05,5-1.03.27-.18.02-.61-.25-.43h0Z"/>
  <path class="cls-1" d="M166.1,95.73c.3,1.63-2.78,2.24-3.84,2.82-1.2.65-2.3,1.49-3.22,2.49-1.68,1.82-2.83,4.22-2.68,6.74.17,2.97,2.02,5.41,3.52,7.85,1.66,2.7,3.24,6.59.87,9.37-.21.24.14.6.35.35,4.6-5.4-3.07-11.42-4.1-16.52-.73-3.61,1.39-7.06,4.27-9.09,1.28-.9,2.77-1.27,4.09-2.05.82-.48,1.41-1.12,1.22-2.11-.06-.32-.54-.18-.48.13h0Z"/>
  <path class="cls-1" d="M159.79,141.54c-.72-2.86,2.5-5.18,3.83-7.4,1.23-2.06,2-4.39,2.31-6.77s.13-4.71-.51-6.96c-.76-2.68-2.4-4.89-3.58-7.38-.14-.29-.57-.04-.43.25,1.25,2.62,2.97,4.94,3.68,7.8.63,2.56.64,5.27.07,7.84s-1.77,4.98-3.45,7.05c-1.33,1.64-2.96,3.42-2.39,5.69.08.31.56.18.48-.13h0Z"/>
  <path class="cls-1" d="M171.69,153c-2.5-1.8-4.5-4.21-5.79-7.02-1.43-3.1-2.31-6.99-.56-10.12,1.51-2.7,3.05-5.13,3.86-8.16s1.02-6.22.63-9.36c-.04-.32-.54-.32-.5,0,.44,3.59.11,7.22-1.05,10.65-.61,1.81-1.45,3.51-2.46,5.12-.87,1.4-1.72,2.73-1.92,4.41-.66,5.72,3.06,11.68,7.53,14.91.26.19.51-.25.25-.43h0Z"/>
  <path class="cls-1" d="M184.02,150.86c.06-1.62.83-3.09,2.2-3.98,1.2-.78,2.69-.89,3.99-1.45,1.72-.74,2.78-2.2,3.34-3.95.68-2.14.71-4.46.8-6.68.13-3.01.1-6.01-.4-8.98-.05-.32-.53-.18-.48.13.51,3.09.5,6.21.36,9.34-.11,2.41-.12,5.04-1.23,7.24-1.3,2.58-3.8,2.52-6.1,3.64-1.82.89-2.9,2.69-2.97,4.7-.01.32.49.32.5,0h0Z"/>
  <path class="cls-1" d="M196.31,101.93c.24,2.97,2.12,5.23,3.77,7.58,1,1.42,1.92,2.98,2.25,4.7.4,2.14-.5,3.74-1.81,5.34-3.62,4.42-4.91,10.21-3.02,15.68.1.3.59.17.48-.13-1.05-3.03-1.15-6.28-.27-9.37.42-1.46,1.05-2.87,1.89-4.14s2-2.33,2.71-3.69c3.07-5.89-5.06-10.48-5.5-15.96-.03-.32-.53-.32-.5,0h0Z"/>
  <path class="cls-1" d="M177.35,154.55c-2.93-.12-4.83-2.58-6.4-4.76-.84-1.17-1.7-2.37-1.76-3.86s.61-3.02,1.23-4.39c.13-.29-.3-.55-.43-.25-.65,1.42-1.33,2.93-1.3,4.52s.92,2.95,1.84,4.23c1.68,2.34,3.71,4.88,6.83,5.01.32.01.32-.49,0-.5h0Z"/>
  <path class="cls-1" d="M191.62,147.39c-3.15-.22-5.1,2.95-7.11,4.88-2.67,2.55-5.83,4.57-9.27,5.93-1.69.67-3.42,1.06-5.18,1.52-1.49.39-2.59,1.15-3.7,2.19-1.35,1.27-2.71,2.27-4.43,2.97-1.53.62-3.14,1.04-4.7,1.57-1.38.47-2.75,1.02-3.96,1.85-.83.58-1.95,1.36-1.71,2.52s1.71,1.91,2.7,2.33c1.7.73,3.57,1.03,5.37,1.41,8.04,1.68,16.21,3.13,24.43,1.93,4.57-.67,9.11-1.9,13.49-3.35,3.34-1.11,6.79-3.01,7.62-6.72.07-.31-.41-.45-.48-.13-.82,3.71-4.37,5.44-7.68,6.5-3.44,1.1-6.95,2.08-10.49,2.77-7.68,1.51-15.29.76-22.92-.71-1.76-.34-3.51-.7-5.26-1.07s-3.49-.7-4.97-1.64c-.65-.41-1.73-1.15-1.2-2.19.2-.4.86-.86,1.2-1.11.48-.35,1-.65,1.53-.91,1.39-.7,2.9-1.14,4.38-1.61,2.53-.8,4.9-1.69,6.87-3.52,1.26-1.17,2.33-2.14,4.03-2.59,1.56-.41,3.1-.75,4.62-1.31,3.04-1.13,5.89-2.76,8.4-4.82,1.33-1.09,2.49-2.32,3.67-3.57,1.28-1.36,2.73-2.76,4.74-2.62.32.02.32-.48,0-.5h0Z"/>
  <path class="cls-1" d="M200.05,172.07c2.15,3.01,3.93,6.27,5.29,9.71.12.3.6.17.48-.13-1.38-3.48-3.17-6.78-5.34-9.83-.19-.26-.62-.01-.43.25h0Z"/>
  <path class="cls-1" d="M153.31,173.95c-.23,3.83-3.05,6.69-4.97,9.79-1.82,2.94-3.15,6.24-3.73,9.66s-.43,6.63.64,9.77c.75,2.21,2.55,4.58,4.71,2.23,1.01-1.1,1.66-2.46,2.44-3.72,1.09-1.76,2.4-2.68,4.32-3.42,2.92-1.13,4.77-3.19,6.71-5.57,1.03-1.26,2.07-2.54,3.35-3.55.69-.55,1.46-1.04,2.3-1.31,1.12-.36,2.39-.12,3.54-.05,4.32.27,8.71.34,13.03-.02.78-.06,1.56-.17,2.27-.51,1.01-.5,1.73-1.4,2.8-1.81,1.84-.71,4.81-.78,6.72-.23,2.51.72,2.92,3.37,3.57,5.55.73,2.46,1.46,4.92,2.18,7.39.09.31.57.18.48-.13-.61-2.07-1.22-4.13-1.83-6.2-.49-1.67-.84-3.56-1.7-5.1-1.49-2.67-5.32-2.51-7.96-2.15-.69.1-1.39.26-2.02.56-.87.41-1.48,1.15-2.31,1.6-1.82.97-4.56.68-6.56.72-2.15.05-4.29.03-6.44-.06-1.85-.08-4.09-.61-5.9-.05-2.78.85-4.68,3.54-6.43,5.68-1.05,1.28-2.14,2.58-3.51,3.53s-3.04,1.27-4.47,2.12c-1.16.69-1.96,1.76-2.66,2.89-.81,1.32-1.59,3.29-2.97,4.11-2.3,1.36-3.38-3.13-3.7-4.57-.39-1.79-.49-3.64-.36-5.46.3-4.2,1.81-8.28,4.04-11.83,1.97-3.13,4.69-6,4.93-9.87.02-.32-.48-.32-.5,0h0Z"/>
  <path class="cls-1" d="M177.49,229.43c2.5-1.77,3.95-4.45,5.11-7.22,1.43-3.41,2.41-7,2.91-10.66s.5-7.56.06-11.33c-.49-4.07-1.29-8.11-1.27-12.23,0-.32-.5-.32-.5,0-.02,3.65.6,7.24,1.09,10.85s.68,7.26.33,10.92-1.14,7.08-2.36,10.43-2.7,6.73-5.62,8.8c-.26.18-.01.62.25.43h0Z"/>
  <path class="cls-1" d="M184.93,195.99c1.13-.49,2.02-1.35,3.06-1.99s2.21-1.14,3.37-1.58c2.19-.83,4.45-1.52,6.43-2.81.27-.17.02-.61-.25-.43-2.07,1.34-4.43,2.02-6.71,2.91-1.03.4-2.05.85-3,1.43-1.07.65-1.99,1.54-3.15,2.05-.29.13-.04.56.25.43h0Z"/>
  <path class="cls-1" d="M184.86,195.79c-5.5-2.75-10.95-5.73-16.68-7.98-.3-.12-.43.37-.13.48,5.69,2.23,11.1,5.2,16.56,7.93.29.14.54-.29.25-.43h0Z"/>
  <path class="cls-1" d="M201.3,197.02c-2.69.23-5.36.67-7.97,1.36-1.21.32-2.66.59-3.77,1.2-.77.42-.62,1.02-.43,1.79,1.4,5.72,1.78,11.57,1.04,17.42-.02.13.13.25.25.25,2.81-.01,5.57-.37,8.29-1.06.31-.08.18-.56-.13-.48-2.68.68-5.4,1.03-8.16,1.04l.25.25c.62-4.91.49-9.89-.44-14.75-.11-.6-.24-1.21-.38-1.8-.18-.79-.59-1.65.16-2.3.37-.32,1.25-.42,1.71-.57.58-.18,1.15-.34,1.74-.5,2.57-.68,5.19-1.12,7.84-1.34.32-.03.32-.53,0-.5h0Z"/>
  <path class="cls-1" d="M180.5,226.07c1.46,2.56,4.26,4.21,7.21,4.26.32,0,.32-.49,0-.5-2.77-.05-5.4-1.61-6.78-4.02-.16-.28-.59-.03-.43.25h0Z"/>
  <path class="cls-1" d="M152.65,200.18c.17,2.18.11,4.36-.25,6.51-.31,1.84-1.1,3.58-1.36,5.4-.21,1.41.34,2.39,1.45,3.22,1.49,1.12,3.08,2.21,4.67,3.18,1.46.89,2.86,1.01,4.54,1,2.08,0,4.17,0,6.25-.01,1.39,0,2.59.24,3.3-1.14.92-1.79,1.68-3.69,2.51-5.53,1.89-4.23,3.73-8.49,5.52-12.76.05-.13-.06-.27-.17-.31-1.48-.43-2.93-.12-4.43,0-1.72.14-3.46.07-5.17-.2-3.32-.53-6.45-1.82-9.21-3.72-.27-.18-.52.25-.25.43,2.68,1.85,5.71,3.12,8.92,3.7,1.54.28,3.11.4,4.67.35,1.77-.05,3.61-.59,5.35-.08l-.17-.31c-1.8,4.31-3.66,8.6-5.57,12.87-.43.96-.86,1.92-1.3,2.88-.37.81-.67,2.04-1.25,2.72-.82.97-3.01.6-4.17.6s-2.24,0-3.37,0-2.2.08-3.28-.04c-1.2-.13-2.17-.69-3.15-1.35-.8-.54-1.59-1.08-2.38-1.63-1-.68-2.46-1.37-2.79-2.65-.31-1.21.39-2.59.72-3.75.3-1.06.53-2.14.69-3.23.31-2.05.36-4.11.19-6.18-.03-.32-.53-.32-.5,0h0Z"/>
  <path class="cls-1" d="M155.13,107.76c-1.86-.06-3.07,1.63-3.68,3.18-.71,1.82-.8,4.01-2.41,5.34-.25.2.11.56.35.35,1.43-1.18,1.78-3.08,2.27-4.76.47-1.59,1.53-3.68,3.46-3.62.32.01.32-.49,0-.5h0Z"/>
  <path class="cls-1" d="M142.83,113.84c2.77-.89,4.95,1.48,5.83,3.85.83,2.24,1.17,4.71,1.66,7.04,1.06,4.97,1.89,10.06,3.28,14.95,1.28,4.5,4.1,8.02,6.92,11.65.81,1.04,1.62,2.09,2.43,3.13.55.71,1.05,1.4,1.89,1.77.99.43,2.14.43,3.16.82,1.24.47,2.34,1.2,3.3,2.11.23.22.59-.13.35-.35-1.13-1.06-2.43-1.89-3.91-2.38-.89-.29-1.88-.32-2.73-.7-1.08-.49-1.76-1.68-2.47-2.6-2.55-3.29-5.5-6.53-7.28-10.33s-2.32-8.14-3.18-12.19-1.49-8.3-2.69-12.28c-.87-2.88-3.3-6.07-6.71-4.98-.31.1-.17.58.13.48h0Z"/>
  <path class="cls-1" d="M89.33,125.44c1.04-2.73,3.77-4.67,6.68-4.79.32-.01.32-.51,0-.5-3.15.13-6.04,2.21-7.16,5.15-.11.3.37.43.48.13h0Z"/>
  <path class="cls-1" d="M95.91,132.11c1.97-2.93,3.78-6.17,2.18-9.69-.41-.9-.95-1.75-1.23-2.71-.37-1.28-.31-2.6-.11-3.9.33-2.09.88-4.16,1.38-6.22,2.05-8.43,4.65-16.73,7.77-24.82.82-2.13,1.69-4.16,3.51-5.63,1.44-1.16,3.19-2.02,4.93-2.61,3.26-1.11,6.82-1.35,10.19-.63s6.36,2.31,8.62,4.82c2.5,2.77,3.88,6.31,4.68,9.91,1.77,7.97.44,16.99,4.67,24.28.16.28.59.03.43-.25-4.1-7.07-2.9-15.83-4.5-23.59-1.37-6.66-4.88-12.7-11.58-15.04-5.89-2.05-13.74-1.14-18.4,3.28-1.36,1.29-2.12,2.97-2.79,4.68-.84,2.14-1.63,4.31-2.4,6.48-1.53,4.36-2.91,8.77-4.13,13.22-.68,2.46-1.31,4.92-1.89,7.4-.53,2.24-1.26,4.6-1.17,6.92s1.72,4.07,2.09,6.32c.46,2.77-1.23,5.34-2.71,7.52-.18.27.25.52.43.25h0Z"/>
  <path class="cls-1" d="M131.1,149.49c-1.44-.48-2.43-1.78-2.86-3.2-.54-1.77-.25-3.67.12-5.45.06-.31-.42-.45-.48-.13-.4,1.94-.71,4.04-.04,5.96.52,1.49,1.6,2.8,3.13,3.3.31.1.44-.38.13-.48h0Z"/>
  <path class="cls-1" d="M132.17,146.46c-1.13-1.74-2.79-4.57-.86-6.4,1.26-1.2,3.13-1.14,4.01-2.82.8-1.52.56-3.27.17-4.87-.26-1.1-.56-2.19-.87-3.28-.29-1.03-.97-2.7.1-3.51.25-.19,0-.63-.25-.43-1.42,1.08-.61,3.06-.22,4.47.65,2.34,2.09,5.84.23,7.97-1.28,1.47-3.59,1.3-4.31,3.38s.47,4.07,1.56,5.76c.17.27.61.02.43-.25h0Z"/>
  <path class="cls-1" d="M138.85,112.92c.65,1.5,1.14,3.11-.18,4.41-.74.72-1.67,1.28-2.48,1.93-1.65,1.33-3.2,2.84-4.28,4.68-1.77,3.01-2.01,7.14.54,9.79.22.23.58-.12.35-.35-3.39-3.53-1.38-8.77,1.57-11.81.72-.74,1.5-1.42,2.3-2.06s1.73-1.19,2.46-1.93c1.41-1.44.86-3.25.15-4.91-.13-.29-.56-.04-.43.25h0Z"/>
  <path class="cls-1" d="M102.76,142.98c-2.19-.34-3.49-2.32-3.7-4.42-.22-2.21.55-4.34,1.15-6.43,1.12-3.87,1.1-7.79-.38-11.57-.12-.3-.6-.17-.48.13.89,2.27,1.31,4.68,1.17,7.12-.15,2.57-1.14,4.91-1.68,7.4-.69,3.17-.11,7.64,3.79,8.25.31.05.45-.43.13-.48h0Z"/>
  <path class="cls-1" d="M101.2,137.43c1.26,2.55,4.3,3.26,6.33,5,2.37,2.03,3.76,5.06,3.8,8.18,0,.32.5.32.5,0-.03-2.98-1.25-5.87-3.35-7.98-1.04-1.05-2.29-1.76-3.56-2.5s-2.6-1.56-3.28-2.95c-.14-.29-.57-.04-.43.25h0Z"/>
  <path class="cls-1" d="M113.94,138.9c-.33,2.02-1.53,3.79-1.78,5.82-.19,1.57.45,2.91,1.58,3.98,1.33,1.26,3.06,2.11,4.01,3.74,1.1,1.89,1.04,4.29-.07,6.15-.16.28.27.53.43.25.86-1.44,1.13-3.13.78-4.77-.38-1.8-1.49-3.09-2.91-4.2-1.55-1.21-3.43-2.44-3.36-4.66s1.45-4.07,1.8-6.19c.05-.31-.43-.45-.48-.13h0Z"/>
  <path class="cls-1" d="M118.49,142.93c-1.28,2.39-2.44,5.34-.17,7.51,1.16,1.11,2.35,1.99,3.19,3.4.23.38.53.86.62,1.3.15.73-.33,1.21-.76,1.72-.59.7-1.19,1.4-1.78,2.1-.21.24.15.6.35.35.59-.7,1.19-1.4,1.78-2.1.36-.43.86-.88.96-1.46.21-1.26-1.11-2.87-1.89-3.75-1.06-1.19-2.72-1.99-3.18-3.6-.51-1.78.5-3.71,1.32-5.23.15-.28-.28-.54-.43-.25h0Z"/>
  <path class="cls-1" d="M153.96,168.18c-6.25-2.06-12.97-5.67-14.68-12.59-.08-.31-.56-.18-.48.13,1.75,7.09,8.6,10.82,15.03,12.94.31.1.44-.38.13-.48h0Z"/>
  <path class="cls-1" d="M133.97,149.28c-3.44,4.1-7.26,7.87-11.45,11.22-2.15,1.72-4.5,3.15-6.65,4.85-1.25.98-2.54,2.35-2.3,4.08.14,1.01.75,1.95,1.24,2.82.51.91,1.07,1.81,1.73,2.62,1.42,1.72,3.2,2.72,5.42,2.97,4.67.54,9.68-.44,14.02-2.15,4.86-1.92,9.2-4.96,12.63-8.9.21-.24-.14-.6-.35-.35-5.75,6.61-14.2,10.69-22.97,10.99-2.53.09-5.2.02-7.22-1.7-1.56-1.33-2.66-3.25-3.55-5.07-1.38-2.82,1.08-4.55,3.18-5.97,1.84-1.25,3.63-2.56,5.36-3.96,4.12-3.31,7.88-7.03,11.27-11.08.21-.25-.15-.6-.35-.35h0Z"/>
  <path class="cls-1" d="M140.86,173.04c1.66,4.19,6.37,6.89,6.87,11.58.03.32.53.32.5,0-.52-4.81-5.19-7.45-6.89-11.71-.12-.3-.6-.17-.48.13h0Z"/>
  <path class="cls-1" d="M87.38,224c-.71-5.48-.75-11.01-.13-16.5.04-.32-.46-.32-.5,0-.62,5.49-.57,11.02.13,16.5.04.31.54.32.5,0h0Z"/>
  <path class="cls-1" d="M94.92,203.97l-.53,10.23-.26,5c-.06,1.24-.28,2.22.61,3.15,1.13,1.19,2.34,2.33,3.54,3.44.97.9,1.86,1.1,3.15,1.2,3.57.29,7.14.56,10.71.84.14.01.24-.12.25-.25.64-6.82,5.8-12.16,6.68-18.93.02-.14-.13-.25-.25-.25-4.44-.1-9.41-.49-13.42-2.57-1.64-.85-3.06-2.03-4.89-2.47s-3.85-.32-5.77-.17c-.32.02-.32.52,0,.5,2.15-.16,4.4-.34,6.47.4,1.85.67,3.38,2.01,5.2,2.75,3.85,1.57,8.29,1.96,12.41,2.05l-.25-.25c-.88,6.76-6.04,12.09-6.68,18.93l.25-.25c-3-.23-6.01-.47-9.01-.7-.73-.06-1.46-.1-2.19-.17-1.13-.11-1.84-.56-2.63-1.33-1.03-1-2.35-1.99-3.22-3.13s-.43-3.27-.36-4.7l.22-4.28.46-9.04c.02-.32-.48-.32-.5,0h0Z"/>
  <path class="cls-1" d="M95.43,203.96c-.02-.06-.04-.12-.04-.18v.07c0-.08,0-.16,0-.24,0-.03,0-.07-.02-.1-.01-.03-.03-.06-.05-.08-.04-.04-.11-.08-.18-.07s-.13.02-.18.07l-.04.05s-.03.08-.03.13c0,.07,0,.15,0,.22.01.09.02.18.06.27.02.06.06.12.11.15.05.03.13.04.19.03s.12-.06.15-.11.05-.13.03-.19h0Z"/>
  <path class="cls-1" d="M119.08,231.65c3.97-4.61,6.72-10.2,7.88-16.18,1.32-6.82.29-13.73-.93-20.49-.06-.32-.54-.18-.48.13,1.2,6.66,2.24,13.49.93,20.22-1.14,5.9-3.84,11.41-7.75,15.96-.21.24.14.6.35.35h0Z"/>
  <path class="cls-1" d="M120.11,229.66c1.52,1.57,3.66,2.48,5.85,2.48.32,0,.32-.5,0-.5-2.06,0-4.06-.85-5.5-2.33-.22-.23-.58.12-.35.35h0Z"/>
  <path class="cls-1" d="M146.75,206.02c.22,5.32.3,10.64.23,15.96,0,.32.5.32.5,0,.06-5.32-.02-10.64-.23-15.96-.01-.32-.51-.32-.5,0h0Z"/>
  <path class="cls-1" d="M141.18,226.32c-3.15-.09-6.29.02-9.43.34l.22.38c3.12-4.28,2.99-9.79,1.69-14.7-.19-.7-.39-1.39-.61-2.08-.08-.26-.29-.61-.28-.87.01-.69.68-.63,1.15-.6,1.21.07,2.43,0,3.62-.19,2.56-.41,4.98-1.42,7.09-2.91.26-.18.01-.62-.25-.43-2.41,1.7-5.2,2.75-8.15,3.01-.65.06-1.31.07-1.96.05-.45-.02-1.08-.19-1.53-.02-.72.26-.55.98-.36,1.55,1.79,5.55,2.85,11.89-.84,16.95-.11.15.04.39.22.38,3.13-.32,6.28-.44,9.43-.34.32,0,.32-.49,0-.5h0Z"/>
  <path class="cls-1" d="M127.13,202.12c2.08-.37,3.93-1.43,5.77-2.42,2.12-1.15,4.23-2.29,6.35-3.44.28-.15.03-.59-.25-.43-2.05,1.11-4.09,2.21-6.14,3.32-1.87,1.01-3.74,2.11-5.86,2.49-.32.06-.18.54.13.48h0Z"/>
  <path class="cls-1" d="M126.93,201.77c-2.73-.87-5.27-2.27-7.45-4.12-.24-.21-.6.15-.35.35,2.25,1.91,4.86,3.35,7.67,4.25.31.1.44-.38.13-.48h0Z"/>
  <path class="cls-1" d="M94.52,179.84c.59,2.36-1.31,4.02-2.88,5.44-1.11,1.01-2.12,2.11-2.99,3.33-1.81,2.55-3.01,5.54-3.5,8.62-.46,2.87-.4,6.05.59,8.82.73,2.04,3.06,4.4,5.34,2.85.97-.66,1.32-1.84,1.82-2.84.97-1.93,2.69-2.19,4.66-2.37,3.69-.34,7.36-.96,10.96-1.86s7.22-2.11,10.69-3.58c3-1.27,6.15-2.65,8.74-4.65.72-.56,1.4-1.18,1.98-1.89s.93-1.63,1.51-2.35c1.19-1.47,4.16-1.34,5.94-1.21,2.05.16,3.97.93,4.87,2.89.74,1.61.83,3.44,1.64,5.03.15.29.58.03.43-.25-1.28-2.52-.95-5.79-3.75-7.33-2.17-1.2-5.42-1.13-7.77-.58-1.47.34-1.85,1.35-2.58,2.54-1.02,1.65-2.57,2.87-4.21,3.87-3.21,1.97-6.76,3.48-10.28,4.77s-7.16,2.31-10.85,3.04c-1.9.37-3.81.67-5.73.89-1.54.17-3.3.11-4.74.77-1.03.47-1.59,1.3-2.06,2.3-.27.57-.49,1.18-.86,1.7-.85,1.2-2.32,1.34-3.52.56-1.58-1.02-2.04-3.15-2.32-4.88s-.31-3.5-.11-5.24c.43-3.83,1.98-7.56,4.46-10.53,1.94-2.33,5.92-4.43,5.03-8.01-.08-.31-.56-.18-.48.13h0Z"/>
  <path class="cls-1" d="M35.93,221.41c-1.1-3.53-1.97-7.06-2.19-10.76s.13-7.4.99-11c.07-.31-.41-.45-.48-.13-.87,3.64-1.22,7.39-1.01,11.14s1.1,7.32,2.21,10.9c.1.31.58.18.48-.13h0Z"/>
  <path class="cls-1" d="M55.79,184.96c-2.16,3.45-2.03,7.92-2.36,11.83-.42,4.9-.92,9.8-1.26,14.71-.27,3.89.18,7.63,3.28,10.33,2.93,2.55,6.85,3.74,10.7,3.57.32-.01.32-.51,0-.5-3.95.18-8.08-1.12-10.92-3.96-3.05-3.04-2.75-7.25-2.41-11.21.37-4.31.74-8.63,1.11-12.94.33-3.83.18-8.21,2.29-11.58.17-.27-.26-.52-.43-.25h0Z"/>
  <path class="cls-1" d="M38.51,221.17c4.42,2.27,10.07,4.86,14.73,1.66.26-.18.01-.61-.25-.43-4.5,3.09-9.96.53-14.23-1.66-.29-.15-.54.28-.25.43h0Z"/>
  <path class="cls-1" d="M69.83,196.28l-7.34,1.14c-1.18.18-2.37.36-3.55.55-.6.1-1.27.13-1.46.8-.21.72.34,1.67.56,2.33.42,1.24.83,2.48,1.25,3.72.81,2.4,1.61,4.8,2.42,7.2.39,1.16.78,2.32,1.17,3.48.29.85.47,2.26,1.1,2.94.39.43,1.09.43,1.61.51,1.3.21,2.6.43,3.9.64,2.14.35,4.28.69,6.45.31s4.28-1.32,6.29-2.27c.69-.32,1.28-.62,1.48-1.4.28-1.1,0-2.55-.03-3.68-.07-2.95-.14-5.9-.21-8.85,0-.32-.51-.32-.5,0,.05,2.05.1,4.1.15,6.15.02.98.05,1.97.07,2.95.02.88.31,2.21.07,3.06-.35,1.18-1.75,1.58-2.74,2.02s-2.08.87-3.16,1.18c-2.19.63-4.32.58-6.55.24-.96-.15-1.93-.31-2.89-.47s-2.17-.15-3.06-.51c-.95-.38-1.19-2.06-1.5-2.96-.34-1.01-.68-2.01-1.01-3.02-1.3-3.87-2.6-7.74-3.9-11.61-.19-.58-.7-1.64-.11-2.16.24-.21,1.12-.18,1.44-.23l3.32-.52,6.87-1.07c.32-.05.18-.53-.13-.48h0Z"/>
  <path class="cls-1" d="M38.66,194.59c2.69,1.2,5.52,1.85,8.46,1.94l-.22-.38c-4.48,5.87-4.35,13.5-4.1,20.52l.25-.25c-1.03.06-2.1.2-3.13.16-1.62-.06-2.36-1.26-2.81-2.65-.67-2.07-1.02-4.25-1.1-6.42-.17-4.39.79-8.76,2.79-12.67.15-.29-.29-.54-.43-.25-2.27,4.44-3.24,9.47-2.76,14.43.21,2.1.53,4.59,1.61,6.45,1.26,2.16,3.71,1.58,5.83,1.46.13,0,.25-.11.25-.25-.24-6.94-.39-14.46,4.04-20.27.12-.16-.05-.37-.22-.38-2.85-.09-5.6-.71-8.21-1.87-.29-.13-.55.3-.25.43h0Z"/>
  <path class="cls-1" d="M38.56,178.18c-.21,2.29-1.75,4.03-2.91,5.91-.98,1.59-1.71,3.34-2.19,5.15-1,3.8-.92,7.79-.15,11.63.04.21.36.25.46.06,1.35-2.71,2.77-5.38,4.27-8.01.71-1.25,1.44-2.49,2.19-3.71.81-1.33,1.64-3.23,3.19-3.78,2.53-.9,5.18,1.11,7.71,0,.35-.15.68-.36.96-.62.49-.47.49-.76,1.26-.68,1.46.17,2.96.67,4.39,1,.31.07.45-.41.13-.48-1.57-.36-3.24-.95-4.83-1.1-.95-.09-1.01.81-1.79,1.27-2.54,1.49-5.56-.96-8.22.21-1.13.5-1.75,1.56-2.38,2.57-.88,1.41-1.74,2.84-2.57,4.28-1.67,2.88-3.24,5.82-4.73,8.8l.46.06c-.82-4.13-.83-8.47.49-12.5.66-2.01,1.69-3.74,2.85-5.49.94-1.42,1.77-2.84,1.93-4.57.03-.32-.47-.32-.5,0h0Z"/>
  <path class="cls-1" d="M56.18,185.18l.23-.3s.03-.06.03-.09c0-.03,0-.07,0-.1,0-.03-.02-.06-.04-.09-.02-.03-.04-.05-.07-.06-.06-.03-.13-.05-.19-.03l-.06.03s-.07.05-.09.09l-.23.3s-.03.06-.03.09c0,.03,0,.07,0,.1,0,.03.02.06.04.09.02.03.04.05.07.06.06.03.13.05.19.03l.06-.03s.07-.05.09-.09h0Z"/>
  <path class="cls-1" d="M41.91,186.86l5.94,2.98c1.85.93,3.68,1.99,5.58,2.8.74.32,1.3.04,2.05-.17.99-.28,1.98-.53,2.97-.77,2.13-.51,4.29-.92,6.45-1.25.32-.05.18-.53-.13-.48-1.88.29-3.75.63-5.6,1.05-1,.23-1.99.47-2.98.74-.42.11-.84.26-1.27.35-.83.18-1.53-.04-2.27-.41l-10.5-5.27c-.29-.14-.54.29-.25.43h0Z"/>
  <path class="cls-1" d="M64.72,189.85c.51,1.98,1.47,3.82,2.85,5.33,1.59,1.74,3.65,2.75,5.69,3.84,3.92,2.08,7.63,5.29,12.29,5.29.32,0,.32-.5,0-.5-4.44,0-8-3.04-11.72-5.05-1.91-1.03-3.9-1.93-5.47-3.47s-2.62-3.46-3.16-5.57c-.08-.31-.56-.18-.48.13h0Z"/>
  <path class="cls-1" d="M88.05,189.89c.76-4.82-2.73-8.9-2.82-13.63l-.25.25c3.14-.4,6.27-.93,9.37-1.59l-.31-.31c-.62,1.64-.27,3.46.82,4.82,1.23,1.54,2.97,1.94,4.87,1.65,3-.46,5.98-1.38,8.92-2.08s6.18-1.47,9.27-2.21c.31-.07.18-.56-.13-.48-4.83,1.15-9.66,2.3-14.49,3.45-2.25.53-5.08,1.69-7.17.18-1.63-1.17-2.32-3.33-1.6-5.2.07-.19-.14-.34-.31-.31-3.06.65-6.13,1.18-9.23,1.57-.13.02-.25.1-.25.25.09,4.67,3.59,8.77,2.84,13.49-.05.31.43.45.48.13h0Z"/>
  <path class="cls-1" d="M117.64,176.8c.22,0,.45-.05.64-.17.05-.03.1-.09.11-.15s0-.14-.03-.19-.09-.1-.15-.11-.13-.01-.19.03c-.04.02-.08.04-.12.06l.06-.03c-.08.03-.16.05-.24.07h.07c-.05,0-.1,0-.15,0-.06,0-.13.03-.18.07s-.08.11-.07.18c0,.14.11.25.25.25h0Z"/>
  <path class="cls-1" d="M95.01,179.83s-.01-.08-.02-.12c0-.02,0-.01,0,.02,0-.01,0-.02,0-.04,0-.02,0-.04,0-.06,0-.08-.01-.15-.02-.23,0-.16,0-.32.02-.47.01-.13-.12-.26-.25-.25-.15,0-.24.11-.25.25-.03.35-.02.69.04,1.03.02.13.19.21.31.17.14-.05.2-.17.17-.31h0Z"/>
  <path class="cls-1" d="M39.2,178.14c-1.11-3.28-.33-6.89,2.05-9.4l-.42-.11c.55,1.49,1.15,3.07,2.28,4.23,1.23,1.26,2.82,1.47,4.5,1.63,2.19.2,4.38.36,6.57.48.72.04,1.55.25,2.04-.39s.45-1.42,1.25-1.98c1.81-1.26,4.11-.57,6.13-.82,1.69-.2,2.92-1.12,4.11-2.26,3.05-2.94,5.56-6.42,7.5-10.18l-.34.09c3.34,2.33,6.83,4.55,9.92,7.21,2.56,2.2,4.85,4.48,8.16,5.5,6.98,2.16,14.1-.59,20.55-3.19.29-.12.17-.6-.13-.48-6.47,2.61-13.69,5.44-20.67,3.07-3.49-1.19-5.84-3.91-8.64-6.16s-5.93-4.29-8.93-6.38c-.11-.07-.28-.02-.34.09-1.76,3.41-3.98,6.56-6.65,9.31-1.56,1.61-3.04,2.87-5.39,2.94-1.56.05-3.12-.2-4.61.37-1.02.39-1.58.97-2.07,1.9-.35.66-.63.82-1.41.89-.45.04-.96-.05-1.41-.08-.94-.06-1.88-.12-2.82-.19-1.95-.15-4.53.02-6.22-1.09-1.56-1.03-2.28-2.96-2.9-4.63-.06-.17-.28-.26-.42-.11-2.5,2.64-3.35,6.44-2.18,9.89.1.3.59.17.48-.13h0Z"/>
  <path class="cls-1" d="M38.57,179.49c1.96,1.31,4.22,1.99,6.5,2.53,2.54.6,5.09,1.16,7.63,1.73.31.07.45-.41.13-.48-2.46-.56-4.93-1.1-7.39-1.68-2.32-.54-4.62-1.21-6.62-2.53-.27-.18-.52.25-.25.43h0Z"/>
  <path class="cls-1" d="M55.56,174.56c-.93,3.09-.19,6.28,1.38,9.04s3.75,5.35,7.03,5.71c1.92.21,3.9.12,5.83.14,1.72.02,3.57.18,5.19-.51,1.39-.59,2.42-1.75,3.37-2.89,1.04-1.24,2.04-2.49,2.41-4.1l-.31.17c1.97.57,4.06-.4,4.87-2.29.13-.29-.31-.55-.43-.25-.72,1.69-2.53,2.57-4.31,2.06-.13-.04-.28.04-.31.17-.37,1.58-1.38,2.81-2.41,4.03-.96,1.14-2.02,2.3-3.47,2.78-1.53.51-3.26.34-4.84.32s-3.16,0-4.74-.07c-3.48-.16-5.68-2.48-7.35-5.35-1.57-2.68-2.34-5.79-1.43-8.83.09-.31-.39-.44-.48-.13h0Z"/>
  <path class="cls-1" d="M85.23,179.97l.25-.39c.03-.05.04-.13.03-.19s-.06-.12-.11-.15c-.06-.03-.13-.05-.19-.03s-.11.06-.15.11l-.25.39c-.03.05-.04.13-.03.19s.06.12.11.15c.06.03.13.05.19.03s.11-.06.15-.11h0Z"/>
  <path class="cls-1" d="M41.3,168.49c.3-4.04-.29-8.12-1.8-11.88-.72-1.79-1.62-3.5-2.71-5.09-1.24-1.8-2.71-3.43-3.92-5.26-2.44-3.67-3.42-8.01-4.12-12.29-.75-4.6-1.23-9.69,1.17-13.91.96-1.68,2.28-2.21,4.08-2.75,1.37-.41,2.94-.87,4.39-.77.32.02.32-.48,0-.5-1.2-.09-2.49.24-3.64.54-1.29.33-2.74.72-3.86,1.48-1.22.83-1.89,2.55-2.36,3.89-.7,2.01-.93,4.15-.88,6.27.09,4.49.94,9.33,2.45,13.55.75,2.09,1.78,4.02,3.1,5.81s2.89,3.61,4.08,5.61c2.73,4.6,3.93,9.97,3.53,15.29-.02.32.48.32.5,0h0Z"/>
  <path class="cls-1" d="M119.71,160.82c-2.47-.61-4.5-1.78-6.64-3.1-.87-.53-1.74-.97-2.72-1.27-1.13-.35-2.32-.54-3.33-1.19-2.05-1.31-3.4-3.85-4.77-5.8s-2.64-3.83-3.89-5.79c-2.53-3.97-4.83-8.09-6.68-12.42-.83-1.94-1.35-4.11-2.4-5.95-.34-.59-.77-1.17-1.34-1.55-.64-.43-1.44-.48-2.08-.91-.27-.18-.52.25-.25.43.4.27.83.38,1.27.53.96.34,1.57,1.02,2.05,1.9.83,1.54,1.28,3.3,1.95,4.92,1.37,3.34,3.01,6.55,4.83,9.67,1.93,3.3,4.04,6.49,6.24,9.62,1.77,2.51,3.43,5.57,6.53,6.55.96.3,1.94.49,2.87.91.97.44,1.85,1.05,2.75,1.61,1.71,1.07,3.53,1.85,5.49,2.34.31.08.45-.4.13-.48h0Z"/>
  <path class="cls-1" d="M76.58,122.03c3.17-.18,6.32.26,9.31,1.32.3.11.43-.38.13-.48-3.03-1.07-6.24-1.52-9.45-1.33-.32.02-.32.52,0,.5h0Z"/>
  <path class="cls-1" d="M37.68,128.62c1.19-1.78,2.43-3.68,2.77-5.83.3-1.93-.41-3.44-1.22-5.13-1.26-2.61-.81-5.11-.2-7.83.54-2.41,1.12-4.81,1.75-7.19,1.23-4.7,2.64-9.35,4.2-13.94.8-2.34,1.64-4.66,2.52-6.96s1.84-4.7,3.97-6.29c6.2-4.65,15.9-4.65,21.91.31,6.58,5.43,6.86,14.72,7.6,22.52.32,3.34,1.25,6.65,2.22,9.84s2.01,6.56,3.72,9.47c.16.28.59.03.43-.25-1.65-2.82-2.67-6.07-3.62-9.18s-1.91-6.46-2.24-9.77c-.76-7.65-.98-16.39-6.85-22.15-5.14-5.05-13.4-5.91-19.89-3.19-1.8.75-3.6,1.76-4.94,3.21-1.44,1.57-2.14,3.63-2.89,5.59-1.84,4.83-3.5,9.74-4.97,14.7-.81,2.75-1.57,5.51-2.26,8.29-.65,2.6-1.4,5.24-1.74,7.89-.16,1.21-.17,2.47.19,3.65s1.13,2.3,1.56,3.51c1.08,3.07-.8,6.03-2.46,8.5-.18.27.25.52.43.25h0Z"/>
  <path class="cls-1" d="M72.87,145.99c-1.44-.48-2.43-1.78-2.86-3.2-.54-1.77-.25-3.67.12-5.45.06-.31-.42-.45-.48-.13-.4,1.94-.71,4.04-.04,5.96.52,1.49,1.6,2.8,3.13,3.3.31.1.44-.38.13-.48h0Z"/>
  <path class="cls-1" d="M73.94,142.96c-1.13-1.74-2.79-4.57-.86-6.4,1.26-1.2,3.13-1.14,4.01-2.82.8-1.52.56-3.27.17-4.87-.26-1.1-.56-2.19-.87-3.28-.29-1.03-.97-2.7.1-3.51.25-.19,0-.63-.25-.43-1.42,1.08-.61,3.06-.22,4.47.65,2.34,2.09,5.84.23,7.97-1.28,1.47-3.59,1.3-4.31,3.38s.47,4.07,1.56,5.76c.17.27.61.02.43-.25h0Z"/>
  <path class="cls-1" d="M44.53,139.48c-2.19-.34-3.49-2.32-3.7-4.42-.22-2.21.55-4.34,1.15-6.43,1.12-3.87,1.1-7.79-.38-11.57-.12-.3-.6-.17-.48.13.89,2.27,1.31,4.68,1.17,7.12-.15,2.57-1.14,4.91-1.68,7.4-.69,3.17-.11,7.64,3.79,8.25.31.05.45-.43.13-.48h0Z"/>
  <path class="cls-1" d="M42.98,133.93c1.26,2.55,4.3,3.26,6.33,5,2.37,2.03,3.76,5.06,3.8,8.18,0,.32.5.32.5,0-.03-2.98-1.25-5.87-3.35-7.98-1.04-1.05-2.29-1.76-3.56-2.5s-2.6-1.56-3.28-2.95c-.14-.29-.57-.04-.43.25h0Z"/>
  <path class="cls-1" d="M55.72,135.4c-.33,2.02-1.53,3.79-1.78,5.82-.19,1.57.45,2.91,1.58,3.98,1.33,1.26,3.06,2.11,4.01,3.74,1.1,1.89,1.04,4.29-.07,6.15-.16.28.27.53.43.25.86-1.44,1.13-3.13.78-4.77-.38-1.8-1.49-3.09-2.91-4.2-1.55-1.21-3.43-2.44-3.36-4.66s1.45-4.07,1.8-6.19c.05-.31-.43-.45-.48-.13h0Z"/>
  <path class="cls-1" d="M60.26,139.43c-1.28,2.39-2.44,5.34-.17,7.51,1.16,1.11,2.35,1.99,3.19,3.4.23.38.53.86.62,1.3.15.73-.33,1.21-.76,1.72-.59.7-1.19,1.4-1.78,2.1-.21.24.15.6.35.35.59-.7,1.19-1.4,1.78-2.1.36-.43.86-.88.96-1.46.21-1.26-1.11-2.87-1.89-3.75-1.06-1.19-2.72-1.99-3.18-3.6-.51-1.78.5-3.71,1.32-5.23.15-.28-.28-.54-.43-.25h0Z"/>
  <path class="cls-1" d="M80.51,109.21c1.9,3.98,1.57,8.8-.82,12.5-.17.27.26.52.43.25,2.49-3.86,2.79-8.87.82-13.01-.14-.29-.57-.04-.43.25h0Z"/>
  <path class="cls-1" d="M87,117.62c1.46,1.85,1.46,4.33,1.31,6.57-.02.32.48.32.5,0,.15-2.4.1-4.95-1.46-6.92-.2-.25-.55.1-.35.35h0Z"/>
</svg>