<svg width="621" height="506" viewBox="0 0 621 506" fill="none" xmlns="http://www.w3.org/2000/svg">
<circle cx="252.615" cy="252.615" r="252.615" fill="#594334"/>
<path d="M76.66 156.16C79.88 156.313 84.0967 156.467 89.31 156.62C94.5233 156.773 99.66 156.85 104.72 156.85C111.927 156.85 118.827 156.773 125.42 156.62C132.013 156.467 136.69 156.39 139.45 156.39C151.87 156.39 162.143 158.153 170.27 161.68C178.55 165.207 184.683 170.037 188.67 176.17C192.81 182.15 194.88 188.897 194.88 196.41C194.88 201.01 193.96 205.917 192.12 211.13C190.28 216.343 187.06 221.25 182.46 225.85C178.013 230.45 171.88 234.283 164.06 237.35C156.24 240.263 146.35 241.72 134.39 241.72H112.31V237.12H132.09C142.977 237.12 151.257 235.433 156.93 232.06C162.757 228.533 166.667 223.933 168.66 218.26C170.807 212.433 171.88 205.993 171.88 198.94C171.88 186.827 168.967 177.473 163.14 170.88C157.467 164.133 147.653 160.76 133.7 160.76C126.647 160.76 122.047 162.063 119.9 164.67C117.753 167.277 116.68 172.567 116.68 180.54V294.62C116.68 300.14 117.14 304.28 118.06 307.04C118.98 309.8 120.743 311.64 123.35 312.56C126.11 313.48 130.097 314.093 135.31 314.4V319C131.783 318.693 127.337 318.54 121.97 318.54C116.757 318.387 111.467 318.31 106.1 318.31C100.12 318.31 94.5233 318.387 89.31 318.54C84.0967 318.54 79.88 318.693 76.66 319V314.4C81.8733 314.093 85.7833 313.48 88.39 312.56C91.15 311.64 92.99 309.8 93.91 307.04C94.83 304.28 95.29 300.14 95.29 294.62V180.54C95.29 174.867 94.83 170.727 93.91 168.12C92.99 165.36 91.15 163.52 88.39 162.6C85.7833 161.527 81.8733 160.913 76.66 160.76V156.16ZM113.23 237.81C121.51 238.117 128.027 238.5 132.78 238.96C137.533 239.267 141.367 239.573 144.28 239.88C147.347 240.187 150.26 240.57 153.02 241.03C163.293 242.717 170.653 245.86 175.1 250.46C179.7 254.907 183.073 261.883 185.22 271.39L190.97 294.85C192.503 301.597 194.037 306.503 195.57 309.57C197.257 312.483 199.787 313.863 203.16 313.71C205.767 313.557 207.913 312.713 209.6 311.18C211.44 309.647 213.357 307.577 215.35 304.97L218.8 307.5C215.58 312.253 212.207 315.933 208.68 318.54C205.307 320.993 200.477 322.22 194.19 322.22C188.517 322.22 183.533 320.533 179.24 317.16C174.947 313.787 171.727 307.193 169.58 297.38L164.52 274.38C163.14 267.787 161.53 262.113 159.69 257.36C158.003 252.453 155.55 248.62 152.33 245.86C149.263 243.1 144.663 241.72 138.53 241.72H113.69L113.23 237.81ZM278.701 197.33C292.194 197.33 302.697 201.47 310.211 209.75C317.877 217.877 321.711 230.603 321.711 247.93H240.521L240.291 243.56H299.631C299.937 236.047 299.324 229.147 297.791 222.86C296.257 216.42 293.804 211.283 290.431 207.45C287.211 203.617 282.994 201.7 277.781 201.7C270.727 201.7 264.441 205.227 258.921 212.28C253.554 219.333 250.334 230.527 249.261 245.86L249.951 246.78C249.644 249.08 249.414 251.61 249.261 254.37C249.107 257.13 249.031 259.89 249.031 262.65C249.031 273.077 250.717 282.047 254.091 289.56C257.464 297.073 261.834 302.823 267.201 306.81C272.721 310.643 278.394 312.56 284.221 312.56C288.821 312.56 293.191 311.87 297.331 310.49C301.471 308.957 305.304 306.503 308.831 303.13C312.357 299.757 315.424 295.233 318.031 289.56L322.631 291.4C320.944 296.46 318.184 301.367 314.351 306.12C310.517 310.873 305.687 314.783 299.861 317.85C294.034 320.763 287.287 322.22 279.621 322.22C268.581 322.22 259.074 319.69 251.101 314.63C243.281 309.57 237.224 302.593 232.931 293.7C228.791 284.653 226.721 274.303 226.721 262.65C226.721 249.157 228.867 237.58 233.161 227.92C237.454 218.107 243.511 210.593 251.331 205.38C259.151 200.013 268.274 197.33 278.701 197.33ZM452.548 345.45V354.65H348.358V345.45H452.548Z" fill="#C7B49C"/>
</svg>
